solid Printed - Handbrake Bearing Crush Tube
   facet normal 0.000000e+00 1.000000e+00 0.000000e+00
      outer loop
         vertex 3.720974e+00 1.800000e+01 7.990256e+00
         vertex 4.000000e+00 1.800000e+01 6.750000e+00
         vertex 3.547365e+00 1.800000e+01 6.712494e+00
      endloop
   endfacet
   facet normal 0.000000e+00 1.000000e+00 0.000000e+00
      outer loop
         vertex 3.107077e+00 1.800000e+01 1.399003e+00
         vertex 2.373054e+00 1.800000e+01 3.458185e-01
         vertex 2.691145e+00 1.800000e+01 1.581447e+00
      endloop
   endfacet
   facet normal 0.000000e+00 1.000000e+00 0.000000e+00
      outer loop
         vertex 2.691145e+00 1.800000e+01 1.581447e+00
         vertex 2.373054e+00 1.800000e+01 3.458185e-01
         vertex 1.880323e+00 1.800000e+01 6.078079e-01
      endloop
   endfacet
   facet normal 0.000000e+00 1.000000e+00 0.000000e+00
      outer loop
         vertex 2.691145e+00 1.800000e+01 1.581447e+00
         vertex 1.880323e+00 1.800000e+01 6.078079e-01
         vertex 2.310915e+00 1.800000e+01 1.829864e+00
      endloop
   endfacet
   facet normal 0.000000e+00 1.000000e+00 0.000000e+00
      outer loop
         vertex 2.310915e+00 1.800000e+01 1.829864e+00
         vertex 1.880323e+00 1.800000e+01 6.078079e-01
         vertex 1.428850e+00 1.800000e+01 9.358225e-01
      endloop
   endfacet
   facet normal 0.000000e+00 1.000000e+00 0.000000e+00
      outer loop
         vertex 2.310915e+00 1.800000e+01 1.829864e+00
         vertex 1.428850e+00 1.800000e+01 9.358225e-01
         vertex 1.976759e+00 1.800000e+01 2.137476e+00
      endloop
   endfacet
   facet normal 0.000000e+00 1.000000e+00 0.000000e+00
      outer loop
         vertex 1.976759e+00 1.800000e+01 2.137476e+00
         vertex 1.428850e+00 1.800000e+01 9.358225e-01
         vertex 1.027421e+00 1.800000e+01 1.323478e+00
      endloop
   endfacet
   facet normal 0.000000e+00 1.000000e+00 0.000000e+00
      outer loop
         vertex 1.976759e+00 1.800000e+01 2.137476e+00
         vertex 1.027421e+00 1.800000e+01 1.323478e+00
         vertex 1.697792e+00 1.800000e+01 2.495893e+00
      endloop
   endfacet
   facet normal 0.000000e+00 1.000000e+00 0.000000e+00
      outer loop
         vertex 1.697792e+00 1.800000e+01 2.495893e+00
         vertex 1.027421e+00 1.800000e+01 1.323478e+00
         vertex 6.838499e-01 1.800000e+01 1.763229e+00
      endloop
   endfacet
   facet normal 0.000000e+00 1.000000e+00 0.000000e+00
      outer loop
         vertex 1.697792e+00 1.800000e+01 2.495893e+00
         vertex 6.838499e-01 1.800000e+01 1.763229e+00
         vertex 1.481624e+00 1.800000e+01 2.895338e+00
      endloop
   endfacet
   facet normal 0.000000e+00 1.000000e+00 0.000000e+00
      outer loop
         vertex 1.481624e+00 1.800000e+01 2.895338e+00
         vertex 6.838499e-01 1.800000e+01 1.763229e+00
         vertex 4.048240e-01 1.800000e+01 2.246516e+00
      endloop
   endfacet
   facet normal 0.000000e+00 1.000000e+00 0.000000e+00
      outer loop
         vertex 1.481624e+00 1.800000e+01 2.895338e+00
         vertex 4.048240e-01 1.800000e+01 2.246516e+00
         vertex 1.334149e+00 1.800000e+01 3.324915e+00
      endloop
   endfacet
   facet normal 0.000000e+00 1.000000e+00 -0.000000e+00
      outer loop
         vertex 1.697792e+00 1.800000e+01 5.504108e+00
         vertex 8.479571e-01 1.800000e+01 6.462646e+00
         vertex 1.976759e+00 1.800000e+01 5.862525e+00
      endloop
   endfacet
   facet normal 0.000000e+00 1.000000e+00 0.000000e+00
      outer loop
         vertex 1.976759e+00 1.800000e+01 5.862525e+00
         vertex 8.479571e-01 1.800000e+01 6.462646e+00
         vertex 1.221367e+00 1.800000e+01 6.877359e+00
      endloop
   endfacet
   facet normal 0.000000e+00 1.000000e+00 -0.000000e+00
      outer loop
         vertex 1.976759e+00 1.800000e+01 5.862525e+00
         vertex 1.221367e+00 1.800000e+01 6.877359e+00
         vertex 2.310915e+00 1.800000e+01 6.170137e+00
      endloop
   endfacet
   facet normal 0.000000e+00 1.000000e+00 0.000000e+00
      outer loop
         vertex 2.310915e+00 1.800000e+01 6.170137e+00
         vertex 1.221367e+00 1.800000e+01 6.877359e+00
         vertex 1.648859e+00 1.800000e+01 7.236068e+00
      endloop
   endfacet
   facet normal 0.000000e+00 1.000000e+00 -0.000000e+00
      outer loop
         vertex 2.310915e+00 1.800000e+01 6.170137e+00
         vertex 1.648859e+00 1.800000e+01 7.236068e+00
         vertex 2.691145e+00 1.800000e+01 6.418553e+00
      endloop
   endfacet
   facet normal 0.000000e+00 1.000000e+00 0.000000e+00
      outer loop
         vertex 2.691145e+00 1.800000e+01 6.418553e+00
         vertex 1.648859e+00 1.800000e+01 7.236068e+00
         vertex 2.122114e+00 1.800000e+01 7.531791e+00
      endloop
   endfacet
   facet normal 0.000000e+00 1.000000e+00 -0.000000e+00
      outer loop
         vertex 2.691145e+00 1.800000e+01 6.418553e+00
         vertex 2.122114e+00 1.800000e+01 7.531791e+00
         vertex 3.107077e+00 1.800000e+01 6.600998e+00
      endloop
   endfacet
   facet normal 0.000000e+00 1.000000e+00 0.000000e+00
      outer loop
         vertex 3.107077e+00 1.800000e+01 6.600998e+00
         vertex 2.122114e+00 1.800000e+01 7.531791e+00
         vertex 2.631920e+00 1.800000e+01 7.758771e+00
      endloop
   endfacet
   facet normal 0.000000e+00 1.000000e+00 -0.000000e+00
      outer loop
         vertex 3.107077e+00 1.800000e+01 6.600998e+00
         vertex 2.631920e+00 1.800000e+01 7.758771e+00
         vertex 3.547365e+00 1.800000e+01 6.712494e+00
      endloop
   endfacet
   facet normal 0.000000e+00 1.000000e+00 0.000000e+00
      outer loop
         vertex 3.547365e+00 1.800000e+01 6.712494e+00
         vertex 2.631920e+00 1.800000e+01 7.758771e+00
         vertex 3.168353e+00 1.800000e+01 7.912591e+00
      endloop
   endfacet
   facet normal 0.000000e+00 1.000000e+00 -0.000000e+00
      outer loop
         vertex 3.547365e+00 1.800000e+01 6.712494e+00
         vertex 3.168353e+00 1.800000e+01 7.912591e+00
         vertex 3.720974e+00 1.800000e+01 7.990256e+00
      endloop
   endfacet
   facet normal 0.000000e+00 1.000000e+00 0.000000e+00
      outer loop
         vertex 6.740608e+00 1.800000e+01 3.772907e+00
         vertex 7.939231e+00 1.800000e+01 3.305407e+00
         vertex 6.665851e+00 1.800000e+01 3.324915e+00
      endloop
   endfacet
   facet normal 0.000000e+00 1.000000e+00 0.000000e+00
      outer loop
         vertex 6.665851e+00 1.800000e+01 3.324915e+00
         vertex 7.939231e+00 1.800000e+01 3.305407e+00
         vertex 7.804226e+00 1.800000e+01 2.763932e+00
      endloop
   endfacet
   facet normal 0.000000e+00 1.000000e+00 0.000000e+00
      outer loop
         vertex 6.665851e+00 1.800000e+01 3.324915e+00
         vertex 7.804226e+00 1.800000e+01 2.763932e+00
         vertex 6.518377e+00 1.800000e+01 2.895338e+00
      endloop
   endfacet
   facet normal 0.000000e+00 1.000000e+00 0.000000e+00
      outer loop
         vertex 6.518377e+00 1.800000e+01 2.895338e+00
         vertex 7.804226e+00 1.800000e+01 2.763932e+00
         vertex 7.595176e+00 1.800000e+01 2.246516e+00
      endloop
   endfacet
   facet normal 0.000000e+00 1.000000e+00 0.000000e+00
      outer loop
         vertex 6.518377e+00 1.800000e+01 2.895338e+00
         vertex 7.595176e+00 1.800000e+01 2.246516e+00
         vertex 6.302208e+00 1.800000e+01 2.495893e+00
      endloop
   endfacet
   facet normal 0.000000e+00 1.000000e+00 0.000000e+00
      outer loop
         vertex 6.302208e+00 1.800000e+01 2.495893e+00
         vertex 7.595176e+00 1.800000e+01 2.246516e+00
         vertex 7.316150e+00 1.800000e+01 1.763229e+00
      endloop
   endfacet
   facet normal 0.000000e+00 1.000000e+00 0.000000e+00
      outer loop
         vertex 6.302208e+00 1.800000e+01 2.495893e+00
         vertex 7.316150e+00 1.800000e+01 1.763229e+00
         vertex 6.023241e+00 1.800000e+01 2.137476e+00
      endloop
   endfacet
   facet normal 0.000000e+00 1.000000e+00 0.000000e+00
      outer loop
         vertex 6.023241e+00 1.800000e+01 2.137476e+00
         vertex 7.316150e+00 1.800000e+01 1.763229e+00
         vertex 6.972580e+00 1.800000e+01 1.323478e+00
      endloop
   endfacet
   facet normal 0.000000e+00 1.000000e+00 0.000000e+00
      outer loop
         vertex 6.023241e+00 1.800000e+01 2.137476e+00
         vertex 6.972580e+00 1.800000e+01 1.323478e+00
         vertex 5.689085e+00 1.800000e+01 1.829864e+00
      endloop
   endfacet
   facet normal 0.000000e+00 1.000000e+00 0.000000e+00
      outer loop
         vertex 5.689085e+00 1.800000e+01 1.829864e+00
         vertex 6.972580e+00 1.800000e+01 1.323478e+00
         vertex 6.571151e+00 1.800000e+01 9.358225e-01
      endloop
   endfacet
   facet normal 0.000000e+00 1.000000e+00 0.000000e+00
      outer loop
         vertex 5.689085e+00 1.800000e+01 1.829864e+00
         vertex 6.571151e+00 1.800000e+01 9.358225e-01
         vertex 5.308856e+00 1.800000e+01 1.581447e+00
      endloop
   endfacet
   facet normal -0.000000e+00 1.000000e+00 0.000000e+00
      outer loop
         vertex 6.023241e+00 1.800000e+01 5.862525e+00
         vertex 7.152043e+00 1.800000e+01 6.462646e+00
         vertex 6.302208e+00 1.800000e+01 5.504108e+00
      endloop
   endfacet
   facet normal 0.000000e+00 1.000000e+00 0.000000e+00
      outer loop
         vertex 6.302208e+00 1.800000e+01 5.504108e+00
         vertex 7.152043e+00 1.800000e+01 6.462646e+00
         vertex 7.464102e+00 1.800000e+01 6.000000e+00
      endloop
   endfacet
   facet normal -0.000000e+00 1.000000e+00 0.000000e+00
      outer loop
         vertex 6.302208e+00 1.800000e+01 5.504108e+00
         vertex 7.464102e+00 1.800000e+01 6.000000e+00
         vertex 6.518377e+00 1.800000e+01 5.104663e+00
      endloop
   endfacet
   facet normal 0.000000e+00 1.000000e+00 0.000000e+00
      outer loop
         vertex 6.518377e+00 1.800000e+01 5.104663e+00
         vertex 7.464102e+00 1.800000e+01 6.000000e+00
         vertex 7.708736e+00 1.800000e+01 5.498427e+00
      endloop
   endfacet
   facet normal -0.000000e+00 1.000000e+00 0.000000e+00
      outer loop
         vertex 6.518377e+00 1.800000e+01 5.104663e+00
         vertex 7.708736e+00 1.800000e+01 5.498427e+00
         vertex 6.665851e+00 1.800000e+01 4.675085e+00
      endloop
   endfacet
   facet normal 0.000000e+00 1.000000e+00 0.000000e+00
      outer loop
         vertex 6.665851e+00 1.800000e+01 4.675085e+00
         vertex 7.708736e+00 1.800000e+01 5.498427e+00
         vertex 7.881183e+00 1.800000e+01 4.967688e+00
      endloop
   endfacet
   facet normal -0.000000e+00 1.000000e+00 0.000000e+00
      outer loop
         vertex 6.665851e+00 1.800000e+01 4.675085e+00
         vertex 7.881183e+00 1.800000e+01 4.967688e+00
         vertex 6.740608e+00 1.800000e+01 4.227093e+00
      endloop
   endfacet
   facet normal 0.000000e+00 1.000000e+00 0.000000e+00
      outer loop
         vertex 6.740608e+00 1.800000e+01 4.227093e+00
         vertex 7.881183e+00 1.800000e+01 4.967688e+00
         vertex 7.978088e+00 1.800000e+01 4.418114e+00
      endloop
   endfacet
   facet normal -0.000000e+00 1.000000e+00 0.000000e+00
      outer loop
         vertex 6.740608e+00 1.800000e+01 4.227093e+00
         vertex 7.978088e+00 1.800000e+01 4.418114e+00
         vertex 6.740608e+00 1.800000e+01 3.772907e+00
      endloop
   endfacet
   facet normal 0.000000e+00 1.000000e+00 0.000000e+00
      outer loop
         vertex 6.740608e+00 1.800000e+01 3.772907e+00
         vertex 7.978088e+00 1.800000e+01 4.418114e+00
         vertex 7.997564e+00 1.800000e+01 3.860402e+00
      endloop
   endfacet
   facet normal -0.000000e+00 1.000000e+00 0.000000e+00
      outer loop
         vertex 6.740608e+00 1.800000e+01 3.772907e+00
         vertex 7.997564e+00 1.800000e+01 3.860402e+00
         vertex 7.939231e+00 1.800000e+01 3.305407e+00
      endloop
   endfacet
   facet normal -0.000000e+00 1.000000e+00 0.000000e+00
      outer loop
         vertex 3.720974e+00 1.800000e+01 7.990256e+00
         vertex 4.000000e+00 1.800000e+01 8.000000e+00
         vertex 4.000000e+00 1.800000e+01 6.750000e+00
      endloop
   endfacet
   facet normal 0.000000e+00 1.000000e+00 -0.000000e+00
      outer loop
         vertex 4.000000e+00 1.800000e+01 6.750000e+00
         vertex 4.000000e+00 1.800000e+01 8.000000e+00
         vertex 4.279026e+00 1.800000e+01 7.990256e+00
      endloop
   endfacet
   facet normal -0.000000e+00 1.000000e+00 0.000000e+00
      outer loop
         vertex 4.000000e+00 1.800000e+01 6.750000e+00
         vertex 4.279026e+00 1.800000e+01 7.990256e+00
         vertex 4.452635e+00 1.800000e+01 6.712494e+00
      endloop
   endfacet
   facet normal 0.000000e+00 1.000000e+00 -0.000000e+00
      outer loop
         vertex 4.452635e+00 1.800000e+01 6.712494e+00
         vertex 4.279026e+00 1.800000e+01 7.990256e+00
         vertex 4.831647e+00 1.800000e+01 7.912591e+00
      endloop
   endfacet
   facet normal -0.000000e+00 1.000000e+00 0.000000e+00
      outer loop
         vertex 4.452635e+00 1.800000e+01 6.712494e+00
         vertex 4.831647e+00 1.800000e+01 7.912591e+00
         vertex 4.892924e+00 1.800000e+01 6.600998e+00
      endloop
   endfacet
   facet normal 0.000000e+00 1.000000e+00 -0.000000e+00
      outer loop
         vertex 4.892924e+00 1.800000e+01 6.600998e+00
         vertex 4.831647e+00 1.800000e+01 7.912591e+00
         vertex 5.368081e+00 1.800000e+01 7.758771e+00
      endloop
   endfacet
   facet normal -0.000000e+00 1.000000e+00 0.000000e+00
      outer loop
         vertex 4.892924e+00 1.800000e+01 6.600998e+00
         vertex 5.368081e+00 1.800000e+01 7.758771e+00
         vertex 5.308856e+00 1.800000e+01 6.418553e+00
      endloop
   endfacet
   facet normal 0.000000e+00 1.000000e+00 0.000000e+00
      outer loop
         vertex 5.308856e+00 1.800000e+01 6.418553e+00
         vertex 5.368081e+00 1.800000e+01 7.758771e+00
         vertex 5.877886e+00 1.800000e+01 7.531791e+00
      endloop
   endfacet
   facet normal -0.000000e+00 1.000000e+00 0.000000e+00
      outer loop
         vertex 5.308856e+00 1.800000e+01 6.418553e+00
         vertex 5.877886e+00 1.800000e+01 7.531791e+00
         vertex 5.689085e+00 1.800000e+01 6.170137e+00
      endloop
   endfacet
   facet normal 0.000000e+00 1.000000e+00 0.000000e+00
      outer loop
         vertex 5.689085e+00 1.800000e+01 6.170137e+00
         vertex 5.877886e+00 1.800000e+01 7.531791e+00
         vertex 6.351141e+00 1.800000e+01 7.236068e+00
      endloop
   endfacet
   facet normal -0.000000e+00 1.000000e+00 0.000000e+00
      outer loop
         vertex 5.689085e+00 1.800000e+01 6.170137e+00
         vertex 6.351141e+00 1.800000e+01 7.236068e+00
         vertex 6.023241e+00 1.800000e+01 5.862525e+00
      endloop
   endfacet
   facet normal 0.000000e+00 1.000000e+00 0.000000e+00
      outer loop
         vertex 6.023241e+00 1.800000e+01 5.862525e+00
         vertex 6.351141e+00 1.800000e+01 7.236068e+00
         vertex 6.778634e+00 1.800000e+01 6.877359e+00
      endloop
   endfacet
   facet normal 0.000000e+00 1.000000e+00 0.000000e+00
      outer loop
         vertex 6.023241e+00 1.800000e+01 5.862525e+00
         vertex 6.778634e+00 1.800000e+01 6.877359e+00
         vertex 7.152043e+00 1.800000e+01 6.462646e+00
      endloop
   endfacet
   facet normal 0.000000e+00 1.000000e+00 0.000000e+00
      outer loop
         vertex 6.571151e+00 1.800000e+01 9.358225e-01
         vertex 6.119677e+00 1.800000e+01 6.078079e-01
         vertex 5.308856e+00 1.800000e+01 1.581447e+00
      endloop
   endfacet
   facet normal 0.000000e+00 1.000000e+00 0.000000e+00
      outer loop
         vertex 5.308856e+00 1.800000e+01 1.581447e+00
         vertex 6.119677e+00 1.800000e+01 6.078079e-01
         vertex 5.626947e+00 1.800000e+01 3.458185e-01
      endloop
   endfacet
   facet normal 0.000000e+00 1.000000e+00 0.000000e+00
      outer loop
         vertex 5.308856e+00 1.800000e+01 1.581447e+00
         vertex 5.626947e+00 1.800000e+01 3.458185e-01
         vertex 4.892924e+00 1.800000e+01 1.399003e+00
      endloop
   endfacet
   facet normal 0.000000e+00 1.000000e+00 0.000000e+00
      outer loop
         vertex 4.892924e+00 1.800000e+01 1.399003e+00
         vertex 5.626947e+00 1.800000e+01 3.458185e-01
         vertex 5.102550e+00 1.800000e+01 1.549534e-01
      endloop
   endfacet
   facet normal 0.000000e+00 1.000000e+00 0.000000e+00
      outer loop
         vertex 4.892924e+00 1.800000e+01 1.399003e+00
         vertex 5.102550e+00 1.800000e+01 1.549534e-01
         vertex 4.452635e+00 1.800000e+01 1.287507e+00
      endloop
   endfacet
   facet normal 0.000000e+00 1.000000e+00 0.000000e+00
      outer loop
         vertex 4.452635e+00 1.800000e+01 1.287507e+00
         vertex 5.102550e+00 1.800000e+01 1.549534e-01
         vertex 4.556693e+00 1.800000e+01 3.892789e-02
      endloop
   endfacet
   facet normal 0.000000e+00 1.000000e+00 0.000000e+00
      outer loop
         vertex 4.452635e+00 1.800000e+01 1.287507e+00
         vertex 4.556693e+00 1.800000e+01 3.892789e-02
         vertex 4.000000e+00 1.800000e+01 1.250000e+00
      endloop
   endfacet
   facet normal 0.000000e+00 1.000000e+00 0.000000e+00
      outer loop
         vertex 4.000000e+00 1.800000e+01 1.250000e+00
         vertex 4.556693e+00 1.800000e+01 3.892789e-02
         vertex 4.000000e+00 1.800000e+01 0.000000e+00
      endloop
   endfacet
   facet normal 0.000000e+00 1.000000e+00 0.000000e+00
      outer loop
         vertex 4.000000e+00 1.800000e+01 1.250000e+00
         vertex 4.000000e+00 1.800000e+01 0.000000e+00
         vertex 3.547365e+00 1.800000e+01 1.287507e+00
      endloop
   endfacet
   facet normal 0.000000e+00 1.000000e+00 0.000000e+00
      outer loop
         vertex 3.547365e+00 1.800000e+01 1.287507e+00
         vertex 4.000000e+00 1.800000e+01 0.000000e+00
         vertex 3.443308e+00 1.800000e+01 3.892789e-02
      endloop
   endfacet
   facet normal 0.000000e+00 1.000000e+00 0.000000e+00
      outer loop
         vertex 3.547365e+00 1.800000e+01 1.287507e+00
         vertex 3.443308e+00 1.800000e+01 3.892789e-02
         vertex 3.107077e+00 1.800000e+01 1.399003e+00
      endloop
   endfacet
   facet normal 0.000000e+00 1.000000e+00 0.000000e+00
      outer loop
         vertex 3.107077e+00 1.800000e+01 1.399003e+00
         vertex 3.443308e+00 1.800000e+01 3.892789e-02
         vertex 2.897451e+00 1.800000e+01 1.549534e-01
      endloop
   endfacet
   facet normal 0.000000e+00 1.000000e+00 0.000000e+00
      outer loop
         vertex 3.107077e+00 1.800000e+01 1.399003e+00
         vertex 2.897451e+00 1.800000e+01 1.549534e-01
         vertex 2.373054e+00 1.800000e+01 3.458185e-01
      endloop
   endfacet
   facet normal 0.000000e+00 1.000000e+00 -0.000000e+00
      outer loop
         vertex 4.048240e-01 1.800000e+01 2.246516e+00
         vertex 1.957740e-01 1.800000e+01 2.763932e+00
         vertex 1.334149e+00 1.800000e+01 3.324915e+00
      endloop
   endfacet
   facet normal 0.000000e+00 1.000000e+00 0.000000e+00
      outer loop
         vertex 1.334149e+00 1.800000e+01 3.324915e+00
         vertex 1.957740e-01 1.800000e+01 2.763932e+00
         vertex 6.076926e-02 1.800000e+01 3.305407e+00
      endloop
   endfacet
   facet normal 0.000000e+00 1.000000e+00 0.000000e+00
      outer loop
         vertex 1.334149e+00 1.800000e+01 3.324915e+00
         vertex 6.076926e-02 1.800000e+01 3.305407e+00
         vertex 1.259393e+00 1.800000e+01 3.772907e+00
      endloop
   endfacet
   facet normal 0.000000e+00 1.000000e+00 0.000000e+00
      outer loop
         vertex 1.259393e+00 1.800000e+01 3.772907e+00
         vertex 6.076926e-02 1.800000e+01 3.305407e+00
         vertex 2.436806e-03 1.800000e+01 3.860402e+00
      endloop
   endfacet
   facet normal 0.000000e+00 1.000000e+00 -0.000000e+00
      outer loop
         vertex 1.259393e+00 1.800000e+01 3.772907e+00
         vertex 2.436806e-03 1.800000e+01 3.860402e+00
         vertex 1.259393e+00 1.800000e+01 4.227093e+00
      endloop
   endfacet
   facet normal 0.000000e+00 1.000000e+00 0.000000e+00
      outer loop
         vertex 1.259393e+00 1.800000e+01 4.227093e+00
         vertex 2.436806e-03 1.800000e+01 3.860402e+00
         vertex 2.191262e-02 1.800000e+01 4.418114e+00
      endloop
   endfacet
   facet normal 0.000000e+00 1.000000e+00 -0.000000e+00
      outer loop
         vertex 1.259393e+00 1.800000e+01 4.227093e+00
         vertex 2.191262e-02 1.800000e+01 4.418114e+00
         vertex 1.334149e+00 1.800000e+01 4.675085e+00
      endloop
   endfacet
   facet normal 0.000000e+00 1.000000e+00 0.000000e+00
      outer loop
         vertex 1.334149e+00 1.800000e+01 4.675085e+00
         vertex 2.191262e-02 1.800000e+01 4.418114e+00
         vertex 1.188172e-01 1.800000e+01 4.967688e+00
      endloop
   endfacet
   facet normal 0.000000e+00 1.000000e+00 -0.000000e+00
      outer loop
         vertex 1.334149e+00 1.800000e+01 4.675085e+00
         vertex 1.188172e-01 1.800000e+01 4.967688e+00
         vertex 1.481624e+00 1.800000e+01 5.104663e+00
      endloop
   endfacet
   facet normal 0.000000e+00 1.000000e+00 0.000000e+00
      outer loop
         vertex 1.481624e+00 1.800000e+01 5.104663e+00
         vertex 1.188172e-01 1.800000e+01 4.967688e+00
         vertex 2.912648e-01 1.800000e+01 5.498427e+00
      endloop
   endfacet
   facet normal 0.000000e+00 1.000000e+00 -0.000000e+00
      outer loop
         vertex 1.481624e+00 1.800000e+01 5.104663e+00
         vertex 2.912648e-01 1.800000e+01 5.498427e+00
         vertex 1.697792e+00 1.800000e+01 5.504108e+00
      endloop
   endfacet
   facet normal 0.000000e+00 1.000000e+00 0.000000e+00
      outer loop
         vertex 1.697792e+00 1.800000e+01 5.504108e+00
         vertex 2.912648e-01 1.800000e+01 5.498427e+00
         vertex 5.358986e-01 1.800000e+01 6.000000e+00
      endloop
   endfacet
   facet normal 0.000000e+00 1.000000e+00 0.000000e+00
      outer loop
         vertex 1.697792e+00 1.800000e+01 5.504108e+00
         vertex 5.358986e-01 1.800000e+01 6.000000e+00
         vertex 8.479571e-01 1.800000e+01 6.462646e+00
      endloop
   endfacet
   facet normal 0.000000e+00 -1.000000e+00 -0.000000e+00
      outer loop
         vertex 1.259393e+00 0.000000e+00 3.772907e+00
         vertex 6.076926e-02 0.000000e+00 3.305407e+00
         vertex 1.334149e+00 0.000000e+00 3.324915e+00
      endloop
   endfacet
   facet normal 0.000000e+00 -1.000000e+00 0.000000e+00
      outer loop
         vertex 1.334149e+00 0.000000e+00 3.324915e+00
         vertex 6.076926e-02 0.000000e+00 3.305407e+00
         vertex 1.957740e-01 0.000000e+00 2.763932e+00
      endloop
   endfacet
   facet normal 0.000000e+00 -1.000000e+00 -0.000000e+00
      outer loop
         vertex 1.334149e+00 0.000000e+00 3.324915e+00
         vertex 1.957740e-01 0.000000e+00 2.763932e+00
         vertex 1.481624e+00 0.000000e+00 2.895338e+00
      endloop
   endfacet
   facet normal 0.000000e+00 -1.000000e+00 0.000000e+00
      outer loop
         vertex 1.481624e+00 0.000000e+00 2.895338e+00
         vertex 1.957740e-01 0.000000e+00 2.763932e+00
         vertex 4.048240e-01 0.000000e+00 2.246516e+00
      endloop
   endfacet
   facet normal 0.000000e+00 -1.000000e+00 -0.000000e+00
      outer loop
         vertex 1.481624e+00 0.000000e+00 2.895338e+00
         vertex 4.048240e-01 0.000000e+00 2.246516e+00
         vertex 1.697792e+00 0.000000e+00 2.495893e+00
      endloop
   endfacet
   facet normal 0.000000e+00 -1.000000e+00 0.000000e+00
      outer loop
         vertex 1.697792e+00 0.000000e+00 2.495893e+00
         vertex 4.048240e-01 0.000000e+00 2.246516e+00
         vertex 6.838499e-01 0.000000e+00 1.763229e+00
      endloop
   endfacet
   facet normal 0.000000e+00 -1.000000e+00 -0.000000e+00
      outer loop
         vertex 1.697792e+00 0.000000e+00 2.495893e+00
         vertex 6.838499e-01 0.000000e+00 1.763229e+00
         vertex 1.976759e+00 0.000000e+00 2.137476e+00
      endloop
   endfacet
   facet normal 0.000000e+00 -1.000000e+00 0.000000e+00
      outer loop
         vertex 1.976759e+00 0.000000e+00 2.137476e+00
         vertex 6.838499e-01 0.000000e+00 1.763229e+00
         vertex 1.027421e+00 0.000000e+00 1.323478e+00
      endloop
   endfacet
   facet normal 0.000000e+00 -1.000000e+00 -0.000000e+00
      outer loop
         vertex 1.976759e+00 0.000000e+00 2.137476e+00
         vertex 1.027421e+00 0.000000e+00 1.323478e+00
         vertex 2.310915e+00 0.000000e+00 1.829864e+00
      endloop
   endfacet
   facet normal 0.000000e+00 -1.000000e+00 0.000000e+00
      outer loop
         vertex 2.310915e+00 0.000000e+00 1.829864e+00
         vertex 1.027421e+00 0.000000e+00 1.323478e+00
         vertex 1.428850e+00 0.000000e+00 9.358225e-01
      endloop
   endfacet
   facet normal 0.000000e+00 -1.000000e+00 -0.000000e+00
      outer loop
         vertex 2.310915e+00 0.000000e+00 1.829864e+00
         vertex 1.428850e+00 0.000000e+00 9.358225e-01
         vertex 2.691145e+00 0.000000e+00 1.581447e+00
      endloop
   endfacet
   facet normal 0.000000e+00 -1.000000e+00 -0.000000e+00
      outer loop
         vertex 4.279026e+00 0.000000e+00 7.990256e+00
         vertex 4.000000e+00 0.000000e+00 6.750000e+00
         vertex 4.452635e+00 0.000000e+00 6.712494e+00
      endloop
   endfacet
   facet normal 0.000000e+00 -1.000000e+00 0.000000e+00
      outer loop
         vertex 4.892924e+00 0.000000e+00 1.399003e+00
         vertex 5.626947e+00 0.000000e+00 3.458185e-01
         vertex 5.308856e+00 0.000000e+00 1.581447e+00
      endloop
   endfacet
   facet normal 0.000000e+00 -1.000000e+00 0.000000e+00
      outer loop
         vertex 5.308856e+00 0.000000e+00 1.581447e+00
         vertex 5.626947e+00 0.000000e+00 3.458185e-01
         vertex 6.119677e+00 0.000000e+00 6.078079e-01
      endloop
   endfacet
   facet normal 0.000000e+00 -1.000000e+00 0.000000e+00
      outer loop
         vertex 5.308856e+00 0.000000e+00 1.581447e+00
         vertex 6.119677e+00 0.000000e+00 6.078079e-01
         vertex 5.689085e+00 0.000000e+00 1.829864e+00
      endloop
   endfacet
   facet normal 0.000000e+00 -1.000000e+00 0.000000e+00
      outer loop
         vertex 5.689085e+00 0.000000e+00 1.829864e+00
         vertex 6.119677e+00 0.000000e+00 6.078079e-01
         vertex 6.571151e+00 0.000000e+00 9.358225e-01
      endloop
   endfacet
   facet normal 0.000000e+00 -1.000000e+00 0.000000e+00
      outer loop
         vertex 5.689085e+00 0.000000e+00 1.829864e+00
         vertex 6.571151e+00 0.000000e+00 9.358225e-01
         vertex 6.023241e+00 0.000000e+00 2.137476e+00
      endloop
   endfacet
   facet normal 0.000000e+00 -1.000000e+00 0.000000e+00
      outer loop
         vertex 6.023241e+00 0.000000e+00 2.137476e+00
         vertex 6.571151e+00 0.000000e+00 9.358225e-01
         vertex 6.972580e+00 0.000000e+00 1.323478e+00
      endloop
   endfacet
   facet normal 0.000000e+00 -1.000000e+00 0.000000e+00
      outer loop
         vertex 6.023241e+00 0.000000e+00 2.137476e+00
         vertex 6.972580e+00 0.000000e+00 1.323478e+00
         vertex 6.302208e+00 0.000000e+00 2.495893e+00
      endloop
   endfacet
   facet normal 0.000000e+00 -1.000000e+00 0.000000e+00
      outer loop
         vertex 6.302208e+00 0.000000e+00 2.495893e+00
         vertex 6.972580e+00 0.000000e+00 1.323478e+00
         vertex 7.316150e+00 0.000000e+00 1.763229e+00
      endloop
   endfacet
   facet normal 0.000000e+00 -1.000000e+00 0.000000e+00
      outer loop
         vertex 6.302208e+00 0.000000e+00 2.495893e+00
         vertex 7.316150e+00 0.000000e+00 1.763229e+00
         vertex 6.518377e+00 0.000000e+00 2.895338e+00
      endloop
   endfacet
   facet normal 0.000000e+00 -1.000000e+00 0.000000e+00
      outer loop
         vertex 6.518377e+00 0.000000e+00 2.895338e+00
         vertex 7.316150e+00 0.000000e+00 1.763229e+00
         vertex 7.595176e+00 0.000000e+00 2.246516e+00
      endloop
   endfacet
   facet normal 0.000000e+00 -1.000000e+00 0.000000e+00
      outer loop
         vertex 6.518377e+00 0.000000e+00 2.895338e+00
         vertex 7.595176e+00 0.000000e+00 2.246516e+00
         vertex 6.665851e+00 0.000000e+00 3.324915e+00
      endloop
   endfacet
   facet normal 0.000000e+00 -1.000000e+00 0.000000e+00
      outer loop
         vertex 1.428850e+00 0.000000e+00 9.358225e-01
         vertex 1.880323e+00 0.000000e+00 6.078079e-01
         vertex 2.691145e+00 0.000000e+00 1.581447e+00
      endloop
   endfacet
   facet normal 0.000000e+00 -1.000000e+00 0.000000e+00
      outer loop
         vertex 2.691145e+00 0.000000e+00 1.581447e+00
         vertex 1.880323e+00 0.000000e+00 6.078079e-01
         vertex 2.373054e+00 0.000000e+00 3.458185e-01
      endloop
   endfacet
   facet normal 0.000000e+00 -1.000000e+00 -0.000000e+00
      outer loop
         vertex 2.691145e+00 0.000000e+00 1.581447e+00
         vertex 2.373054e+00 0.000000e+00 3.458185e-01
         vertex 3.107077e+00 0.000000e+00 1.399003e+00
      endloop
   endfacet
   facet normal 0.000000e+00 -1.000000e+00 0.000000e+00
      outer loop
         vertex 3.107077e+00 0.000000e+00 1.399003e+00
         vertex 2.373054e+00 0.000000e+00 3.458185e-01
         vertex 2.897451e+00 0.000000e+00 1.549534e-01
      endloop
   endfacet
   facet normal 0.000000e+00 -1.000000e+00 -0.000000e+00
      outer loop
         vertex 3.107077e+00 0.000000e+00 1.399003e+00
         vertex 2.897451e+00 0.000000e+00 1.549534e-01
         vertex 3.547365e+00 0.000000e+00 1.287507e+00
      endloop
   endfacet
   facet normal 0.000000e+00 -1.000000e+00 0.000000e+00
      outer loop
         vertex 3.547365e+00 0.000000e+00 1.287507e+00
         vertex 2.897451e+00 0.000000e+00 1.549534e-01
         vertex 3.443308e+00 0.000000e+00 3.892789e-02
      endloop
   endfacet
   facet normal 0.000000e+00 -1.000000e+00 -0.000000e+00
      outer loop
         vertex 3.547365e+00 0.000000e+00 1.287507e+00
         vertex 3.443308e+00 0.000000e+00 3.892789e-02
         vertex 4.000000e+00 0.000000e+00 1.250000e+00
      endloop
   endfacet
   facet normal 0.000000e+00 -1.000000e+00 -0.000000e+00
      outer loop
         vertex 4.000000e+00 0.000000e+00 1.250000e+00
         vertex 3.443308e+00 0.000000e+00 3.892789e-02
         vertex 4.000000e+00 0.000000e+00 0.000000e+00
      endloop
   endfacet
   facet normal 0.000000e+00 -1.000000e+00 0.000000e+00
      outer loop
         vertex 4.000000e+00 0.000000e+00 1.250000e+00
         vertex 4.000000e+00 0.000000e+00 0.000000e+00
         vertex 4.452635e+00 0.000000e+00 1.287507e+00
      endloop
   endfacet
   facet normal 0.000000e+00 -1.000000e+00 -0.000000e+00
      outer loop
         vertex 4.452635e+00 0.000000e+00 1.287507e+00
         vertex 4.000000e+00 0.000000e+00 0.000000e+00
         vertex 4.556693e+00 0.000000e+00 3.892789e-02
      endloop
   endfacet
   facet normal 0.000000e+00 -1.000000e+00 0.000000e+00
      outer loop
         vertex 4.452635e+00 0.000000e+00 1.287507e+00
         vertex 4.556693e+00 0.000000e+00 3.892789e-02
         vertex 4.892924e+00 0.000000e+00 1.399003e+00
      endloop
   endfacet
   facet normal 0.000000e+00 -1.000000e+00 -0.000000e+00
      outer loop
         vertex 4.892924e+00 0.000000e+00 1.399003e+00
         vertex 4.556693e+00 0.000000e+00 3.892789e-02
         vertex 5.102550e+00 0.000000e+00 1.549534e-01
      endloop
   endfacet
   facet normal 0.000000e+00 -1.000000e+00 0.000000e+00
      outer loop
         vertex 4.892924e+00 0.000000e+00 1.399003e+00
         vertex 5.102550e+00 0.000000e+00 1.549534e-01
         vertex 5.626947e+00 0.000000e+00 3.458185e-01
      endloop
   endfacet
   facet normal -0.000000e+00 -1.000000e+00 0.000000e+00
      outer loop
         vertex 4.279026e+00 0.000000e+00 7.990256e+00
         vertex 4.000000e+00 0.000000e+00 8.000000e+00
         vertex 4.000000e+00 0.000000e+00 6.750000e+00
      endloop
   endfacet
   facet normal 0.000000e+00 -1.000000e+00 0.000000e+00
      outer loop
         vertex 4.000000e+00 0.000000e+00 6.750000e+00
         vertex 4.000000e+00 0.000000e+00 8.000000e+00
         vertex 3.720974e+00 0.000000e+00 7.990256e+00
      endloop
   endfacet
   facet normal -0.000000e+00 -1.000000e+00 0.000000e+00
      outer loop
         vertex 4.000000e+00 0.000000e+00 6.750000e+00
         vertex 3.720974e+00 0.000000e+00 7.990256e+00
         vertex 3.547365e+00 0.000000e+00 6.712494e+00
      endloop
   endfacet
   facet normal 0.000000e+00 -1.000000e+00 0.000000e+00
      outer loop
         vertex 3.547365e+00 0.000000e+00 6.712494e+00
         vertex 3.720974e+00 0.000000e+00 7.990256e+00
         vertex 3.168353e+00 0.000000e+00 7.912591e+00
      endloop
   endfacet
   facet normal -0.000000e+00 -1.000000e+00 0.000000e+00
      outer loop
         vertex 3.547365e+00 0.000000e+00 6.712494e+00
         vertex 3.168353e+00 0.000000e+00 7.912591e+00
         vertex 3.107077e+00 0.000000e+00 6.600998e+00
      endloop
   endfacet
   facet normal 0.000000e+00 -1.000000e+00 0.000000e+00
      outer loop
         vertex 3.107077e+00 0.000000e+00 6.600998e+00
         vertex 3.168353e+00 0.000000e+00 7.912591e+00
         vertex 2.631920e+00 0.000000e+00 7.758771e+00
      endloop
   endfacet
   facet normal -0.000000e+00 -1.000000e+00 0.000000e+00
      outer loop
         vertex 3.107077e+00 0.000000e+00 6.600998e+00
         vertex 2.631920e+00 0.000000e+00 7.758771e+00
         vertex 2.691145e+00 0.000000e+00 6.418553e+00
      endloop
   endfacet
   facet normal 0.000000e+00 -1.000000e+00 0.000000e+00
      outer loop
         vertex 2.691145e+00 0.000000e+00 6.418553e+00
         vertex 2.631920e+00 0.000000e+00 7.758771e+00
         vertex 2.122114e+00 0.000000e+00 7.531791e+00
      endloop
   endfacet
   facet normal -0.000000e+00 -1.000000e+00 0.000000e+00
      outer loop
         vertex 2.691145e+00 0.000000e+00 6.418553e+00
         vertex 2.122114e+00 0.000000e+00 7.531791e+00
         vertex 2.310915e+00 0.000000e+00 6.170137e+00
      endloop
   endfacet
   facet normal 0.000000e+00 -1.000000e+00 0.000000e+00
      outer loop
         vertex 2.310915e+00 0.000000e+00 6.170137e+00
         vertex 2.122114e+00 0.000000e+00 7.531791e+00
         vertex 1.648859e+00 0.000000e+00 7.236068e+00
      endloop
   endfacet
   facet normal -0.000000e+00 -1.000000e+00 0.000000e+00
      outer loop
         vertex 2.310915e+00 0.000000e+00 6.170137e+00
         vertex 1.648859e+00 0.000000e+00 7.236068e+00
         vertex 1.976759e+00 0.000000e+00 5.862525e+00
      endloop
   endfacet
   facet normal 0.000000e+00 -1.000000e+00 -0.000000e+00
      outer loop
         vertex 1.648859e+00 0.000000e+00 7.236068e+00
         vertex 1.221367e+00 0.000000e+00 6.877359e+00
         vertex 1.976759e+00 0.000000e+00 5.862525e+00
      endloop
   endfacet
   facet normal 0.000000e+00 -1.000000e+00 0.000000e+00
      outer loop
         vertex 1.976759e+00 0.000000e+00 5.862525e+00
         vertex 1.221367e+00 0.000000e+00 6.877359e+00
         vertex 8.479571e-01 0.000000e+00 6.462646e+00
      endloop
   endfacet
   facet normal -0.000000e+00 -1.000000e+00 0.000000e+00
      outer loop
         vertex 1.976759e+00 0.000000e+00 5.862525e+00
         vertex 8.479571e-01 0.000000e+00 6.462646e+00
         vertex 1.697792e+00 0.000000e+00 5.504108e+00
      endloop
   endfacet
   facet normal 0.000000e+00 -1.000000e+00 0.000000e+00
      outer loop
         vertex 1.697792e+00 0.000000e+00 5.504108e+00
         vertex 8.479571e-01 0.000000e+00 6.462646e+00
         vertex 5.358986e-01 0.000000e+00 6.000000e+00
      endloop
   endfacet
   facet normal -0.000000e+00 -1.000000e+00 0.000000e+00
      outer loop
         vertex 1.697792e+00 0.000000e+00 5.504108e+00
         vertex 5.358986e-01 0.000000e+00 6.000000e+00
         vertex 1.481624e+00 0.000000e+00 5.104663e+00
      endloop
   endfacet
   facet normal 0.000000e+00 -1.000000e+00 0.000000e+00
      outer loop
         vertex 1.481624e+00 0.000000e+00 5.104663e+00
         vertex 5.358986e-01 0.000000e+00 6.000000e+00
         vertex 2.912648e-01 0.000000e+00 5.498427e+00
      endloop
   endfacet
   facet normal -0.000000e+00 -1.000000e+00 0.000000e+00
      outer loop
         vertex 1.481624e+00 0.000000e+00 5.104663e+00
         vertex 2.912648e-01 0.000000e+00 5.498427e+00
         vertex 1.334149e+00 0.000000e+00 4.675085e+00
      endloop
   endfacet
   facet normal 0.000000e+00 -1.000000e+00 0.000000e+00
      outer loop
         vertex 1.334149e+00 0.000000e+00 4.675085e+00
         vertex 2.912648e-01 0.000000e+00 5.498427e+00
         vertex 1.188172e-01 0.000000e+00 4.967688e+00
      endloop
   endfacet
   facet normal -0.000000e+00 -1.000000e+00 0.000000e+00
      outer loop
         vertex 1.334149e+00 0.000000e+00 4.675085e+00
         vertex 1.188172e-01 0.000000e+00 4.967688e+00
         vertex 1.259393e+00 0.000000e+00 4.227093e+00
      endloop
   endfacet
   facet normal 0.000000e+00 -1.000000e+00 0.000000e+00
      outer loop
         vertex 1.259393e+00 0.000000e+00 4.227093e+00
         vertex 1.188172e-01 0.000000e+00 4.967688e+00
         vertex 2.191262e-02 0.000000e+00 4.418114e+00
      endloop
   endfacet
   facet normal -0.000000e+00 -1.000000e+00 -0.000000e+00
      outer loop
         vertex 1.259393e+00 0.000000e+00 4.227093e+00
         vertex 2.191262e-02 0.000000e+00 4.418114e+00
         vertex 1.259393e+00 0.000000e+00 3.772907e+00
      endloop
   endfacet
   facet normal 0.000000e+00 -1.000000e+00 0.000000e+00
      outer loop
         vertex 1.259393e+00 0.000000e+00 3.772907e+00
         vertex 2.191262e-02 0.000000e+00 4.418114e+00
         vertex 2.436806e-03 0.000000e+00 3.860402e+00
      endloop
   endfacet
   facet normal -0.000000e+00 -1.000000e+00 0.000000e+00
      outer loop
         vertex 1.259393e+00 0.000000e+00 3.772907e+00
         vertex 2.436806e-03 0.000000e+00 3.860402e+00
         vertex 6.076926e-02 0.000000e+00 3.305407e+00
      endloop
   endfacet
   facet normal 0.000000e+00 -1.000000e+00 0.000000e+00
      outer loop
         vertex 6.302208e+00 0.000000e+00 5.504108e+00
         vertex 7.152043e+00 0.000000e+00 6.462646e+00
         vertex 6.023241e+00 0.000000e+00 5.862525e+00
      endloop
   endfacet
   facet normal 0.000000e+00 -1.000000e+00 0.000000e+00
      outer loop
         vertex 6.023241e+00 0.000000e+00 5.862525e+00
         vertex 7.152043e+00 0.000000e+00 6.462646e+00
         vertex 6.778634e+00 0.000000e+00 6.877359e+00
      endloop
   endfacet
   facet normal 0.000000e+00 -1.000000e+00 0.000000e+00
      outer loop
         vertex 6.023241e+00 0.000000e+00 5.862525e+00
         vertex 6.778634e+00 0.000000e+00 6.877359e+00
         vertex 5.689085e+00 0.000000e+00 6.170137e+00
      endloop
   endfacet
   facet normal 0.000000e+00 -1.000000e+00 0.000000e+00
      outer loop
         vertex 5.689085e+00 0.000000e+00 6.170137e+00
         vertex 6.778634e+00 0.000000e+00 6.877359e+00
         vertex 6.351141e+00 0.000000e+00 7.236068e+00
      endloop
   endfacet
   facet normal 0.000000e+00 -1.000000e+00 0.000000e+00
      outer loop
         vertex 5.689085e+00 0.000000e+00 6.170137e+00
         vertex 6.351141e+00 0.000000e+00 7.236068e+00
         vertex 5.308856e+00 0.000000e+00 6.418553e+00
      endloop
   endfacet
   facet normal 0.000000e+00 -1.000000e+00 0.000000e+00
      outer loop
         vertex 5.308856e+00 0.000000e+00 6.418553e+00
         vertex 6.351141e+00 0.000000e+00 7.236068e+00
         vertex 5.877886e+00 0.000000e+00 7.531791e+00
      endloop
   endfacet
   facet normal 0.000000e+00 -1.000000e+00 0.000000e+00
      outer loop
         vertex 5.308856e+00 0.000000e+00 6.418553e+00
         vertex 5.877886e+00 0.000000e+00 7.531791e+00
         vertex 4.892924e+00 0.000000e+00 6.600998e+00
      endloop
   endfacet
   facet normal 0.000000e+00 -1.000000e+00 0.000000e+00
      outer loop
         vertex 4.892924e+00 0.000000e+00 6.600998e+00
         vertex 5.877886e+00 0.000000e+00 7.531791e+00
         vertex 5.368081e+00 0.000000e+00 7.758771e+00
      endloop
   endfacet
   facet normal 0.000000e+00 -1.000000e+00 0.000000e+00
      outer loop
         vertex 4.892924e+00 0.000000e+00 6.600998e+00
         vertex 5.368081e+00 0.000000e+00 7.758771e+00
         vertex 4.452635e+00 0.000000e+00 6.712494e+00
      endloop
   endfacet
   facet normal 0.000000e+00 -1.000000e+00 0.000000e+00
      outer loop
         vertex 4.452635e+00 0.000000e+00 6.712494e+00
         vertex 5.368081e+00 0.000000e+00 7.758771e+00
         vertex 4.831647e+00 0.000000e+00 7.912591e+00
      endloop
   endfacet
   facet normal 0.000000e+00 -1.000000e+00 0.000000e+00
      outer loop
         vertex 4.452635e+00 0.000000e+00 6.712494e+00
         vertex 4.831647e+00 0.000000e+00 7.912591e+00
         vertex 4.279026e+00 0.000000e+00 7.990256e+00
      endloop
   endfacet
   facet normal 0.000000e+00 -1.000000e+00 0.000000e+00
      outer loop
         vertex 7.595176e+00 0.000000e+00 2.246516e+00
         vertex 7.804226e+00 0.000000e+00 2.763932e+00
         vertex 6.665851e+00 0.000000e+00 3.324915e+00
      endloop
   endfacet
   facet normal 0.000000e+00 -1.000000e+00 0.000000e+00
      outer loop
         vertex 6.665851e+00 0.000000e+00 3.324915e+00
         vertex 7.804226e+00 0.000000e+00 2.763932e+00
         vertex 7.939231e+00 0.000000e+00 3.305407e+00
      endloop
   endfacet
   facet normal 0.000000e+00 -1.000000e+00 0.000000e+00
      outer loop
         vertex 6.665851e+00 0.000000e+00 3.324915e+00
         vertex 7.939231e+00 0.000000e+00 3.305407e+00
         vertex 6.740608e+00 0.000000e+00 3.772907e+00
      endloop
   endfacet
   facet normal 0.000000e+00 -1.000000e+00 0.000000e+00
      outer loop
         vertex 6.740608e+00 0.000000e+00 3.772907e+00
         vertex 7.939231e+00 0.000000e+00 3.305407e+00
         vertex 7.997564e+00 0.000000e+00 3.860402e+00
      endloop
   endfacet
   facet normal 0.000000e+00 -1.000000e+00 0.000000e+00
      outer loop
         vertex 6.740608e+00 0.000000e+00 3.772907e+00
         vertex 7.997564e+00 0.000000e+00 3.860402e+00
         vertex 6.740608e+00 0.000000e+00 4.227093e+00
      endloop
   endfacet
   facet normal 0.000000e+00 -1.000000e+00 0.000000e+00
      outer loop
         vertex 6.740608e+00 0.000000e+00 4.227093e+00
         vertex 7.997564e+00 0.000000e+00 3.860402e+00
         vertex 7.978088e+00 0.000000e+00 4.418114e+00
      endloop
   endfacet
   facet normal 0.000000e+00 -1.000000e+00 0.000000e+00
      outer loop
         vertex 6.740608e+00 0.000000e+00 4.227093e+00
         vertex 7.978088e+00 0.000000e+00 4.418114e+00
         vertex 6.665851e+00 0.000000e+00 4.675085e+00
      endloop
   endfacet
   facet normal 0.000000e+00 -1.000000e+00 0.000000e+00
      outer loop
         vertex 6.665851e+00 0.000000e+00 4.675085e+00
         vertex 7.978088e+00 0.000000e+00 4.418114e+00
         vertex 7.881183e+00 0.000000e+00 4.967688e+00
      endloop
   endfacet
   facet normal 0.000000e+00 -1.000000e+00 0.000000e+00
      outer loop
         vertex 6.665851e+00 0.000000e+00 4.675085e+00
         vertex 7.881183e+00 0.000000e+00 4.967688e+00
         vertex 6.518377e+00 0.000000e+00 5.104663e+00
      endloop
   endfacet
   facet normal 0.000000e+00 -1.000000e+00 0.000000e+00
      outer loop
         vertex 6.518377e+00 0.000000e+00 5.104663e+00
         vertex 7.881183e+00 0.000000e+00 4.967688e+00
         vertex 7.708736e+00 0.000000e+00 5.498427e+00
      endloop
   endfacet
   facet normal 0.000000e+00 -1.000000e+00 0.000000e+00
      outer loop
         vertex 6.518377e+00 0.000000e+00 5.104663e+00
         vertex 7.708736e+00 0.000000e+00 5.498427e+00
         vertex 6.302208e+00 0.000000e+00 5.504108e+00
      endloop
   endfacet
   facet normal 0.000000e+00 -1.000000e+00 0.000000e+00
      outer loop
         vertex 6.302208e+00 0.000000e+00 5.504108e+00
         vertex 7.708736e+00 0.000000e+00 5.498427e+00
         vertex 7.464102e+00 0.000000e+00 6.000000e+00
      endloop
   endfacet
   facet normal 0.000000e+00 -1.000000e+00 0.000000e+00
      outer loop
         vertex 6.302208e+00 0.000000e+00 5.504108e+00
         vertex 7.464102e+00 0.000000e+00 6.000000e+00
         vertex 7.152043e+00 0.000000e+00 6.462646e+00
      endloop
   endfacet
   facet normal 3.490008e-02 -1.892851e-18 9.993908e-01
      outer loop
         vertex 4.279026e+00 1.800000e+01 7.990256e+00
         vertex 4.000000e+00 1.800000e+01 8.000000e+00
         vertex 4.000000e+00 0.000000e+00 8.000000e+00
      endloop
   endfacet
   facet normal -3.490008e-02 1.899568e-18 9.993908e-01
      outer loop
         vertex 4.000000e+00 0.000000e+00 8.000000e+00
         vertex 4.000000e+00 1.800000e+01 8.000000e+00
         vertex 3.720974e+00 0.000000e+00 7.990256e+00
      endloop
   endfacet
   facet normal -3.490008e-02 0.000000e+00 9.993908e-01
      outer loop
         vertex 4.000000e+00 1.800000e+01 8.000000e+00
         vertex 3.720974e+00 1.800000e+01 7.990256e+00
         vertex 3.720974e+00 0.000000e+00 7.990256e+00
      endloop
   endfacet
   facet normal -1.391731e-01 0.000000e+00 9.902681e-01
      outer loop
         vertex 3.720974e+00 0.000000e+00 7.990256e+00
         vertex 3.720974e+00 1.800000e+01 7.990256e+00
         vertex 3.168353e+00 1.800000e+01 7.912591e+00
      endloop
   endfacet
   facet normal -1.391731e-01 0.000000e+00 9.902681e-01
      outer loop
         vertex 3.720974e+00 0.000000e+00 7.990256e+00
         vertex 3.168353e+00 1.800000e+01 7.912591e+00
         vertex 3.168353e+00 0.000000e+00 7.912591e+00
      endloop
   endfacet
   facet normal -2.756375e-01 0.000000e+00 9.612616e-01
      outer loop
         vertex 3.168353e+00 0.000000e+00 7.912591e+00
         vertex 3.168353e+00 1.800000e+01 7.912591e+00
         vertex 2.631920e+00 1.800000e+01 7.758771e+00
      endloop
   endfacet
   facet normal -2.756375e-01 0.000000e+00 9.612616e-01
      outer loop
         vertex 3.168353e+00 0.000000e+00 7.912591e+00
         vertex 2.631920e+00 1.800000e+01 7.758771e+00
         vertex 2.631920e+00 0.000000e+00 7.758771e+00
      endloop
   endfacet
   facet normal -4.067366e-01 0.000000e+00 9.135455e-01
      outer loop
         vertex 2.631920e+00 0.000000e+00 7.758771e+00
         vertex 2.631920e+00 1.800000e+01 7.758771e+00
         vertex 2.122114e+00 1.800000e+01 7.531791e+00
      endloop
   endfacet
   facet normal -4.067366e-01 0.000000e+00 9.135455e-01
      outer loop
         vertex 2.631920e+00 0.000000e+00 7.758771e+00
         vertex 2.122114e+00 1.800000e+01 7.531791e+00
         vertex 2.122114e+00 0.000000e+00 7.531791e+00
      endloop
   endfacet
   facet normal -5.299192e-01 0.000000e+00 8.480481e-01
      outer loop
         vertex 2.122114e+00 0.000000e+00 7.531791e+00
         vertex 2.122114e+00 1.800000e+01 7.531791e+00
         vertex 1.648859e+00 1.800000e+01 7.236068e+00
      endloop
   endfacet
   facet normal -5.299192e-01 0.000000e+00 8.480481e-01
      outer loop
         vertex 2.122114e+00 0.000000e+00 7.531791e+00
         vertex 1.648859e+00 1.800000e+01 7.236068e+00
         vertex 1.648859e+00 0.000000e+00 7.236068e+00
      endloop
   endfacet
   facet normal -6.427875e-01 0.000000e+00 7.660445e-01
      outer loop
         vertex 1.648859e+00 0.000000e+00 7.236068e+00
         vertex 1.648859e+00 1.800000e+01 7.236068e+00
         vertex 1.221367e+00 1.800000e+01 6.877359e+00
      endloop
   endfacet
   facet normal -6.427875e-01 0.000000e+00 7.660445e-01
      outer loop
         vertex 1.648859e+00 0.000000e+00 7.236068e+00
         vertex 1.221367e+00 1.800000e+01 6.877359e+00
         vertex 1.221367e+00 0.000000e+00 6.877359e+00
      endloop
   endfacet
   facet normal -7.431448e-01 0.000000e+00 6.691307e-01
      outer loop
         vertex 1.221367e+00 0.000000e+00 6.877359e+00
         vertex 1.221367e+00 1.800000e+01 6.877359e+00
         vertex 8.479571e-01 1.800000e+01 6.462646e+00
      endloop
   endfacet
   facet normal -7.431448e-01 0.000000e+00 6.691307e-01
      outer loop
         vertex 1.221367e+00 0.000000e+00 6.877359e+00
         vertex 8.479571e-01 1.800000e+01 6.462646e+00
         vertex 8.479571e-01 0.000000e+00 6.462646e+00
      endloop
   endfacet
   facet normal -8.290377e-01 0.000000e+00 5.591928e-01
      outer loop
         vertex 8.479571e-01 0.000000e+00 6.462646e+00
         vertex 8.479571e-01 1.800000e+01 6.462646e+00
         vertex 5.358986e-01 1.800000e+01 6.000000e+00
      endloop
   endfacet
   facet normal -8.290377e-01 0.000000e+00 5.591928e-01
      outer loop
         vertex 8.479571e-01 0.000000e+00 6.462646e+00
         vertex 5.358986e-01 1.800000e+01 6.000000e+00
         vertex 5.358986e-01 0.000000e+00 6.000000e+00
      endloop
   endfacet
   facet normal -8.987941e-01 0.000000e+00 4.383711e-01
      outer loop
         vertex 5.358986e-01 0.000000e+00 6.000000e+00
         vertex 5.358986e-01 1.800000e+01 6.000000e+00
         vertex 2.912648e-01 1.800000e+01 5.498427e+00
      endloop
   endfacet
   facet normal -8.987941e-01 0.000000e+00 4.383711e-01
      outer loop
         vertex 5.358986e-01 0.000000e+00 6.000000e+00
         vertex 2.912648e-01 1.800000e+01 5.498427e+00
         vertex 2.912648e-01 0.000000e+00 5.498427e+00
      endloop
   endfacet
   facet normal -9.510564e-01 0.000000e+00 3.090172e-01
      outer loop
         vertex 2.912648e-01 0.000000e+00 5.498427e+00
         vertex 2.912648e-01 1.800000e+01 5.498427e+00
         vertex 1.188172e-01 1.800000e+01 4.967688e+00
      endloop
   endfacet
   facet normal -9.510564e-01 0.000000e+00 3.090172e-01
      outer loop
         vertex 2.912648e-01 0.000000e+00 5.498427e+00
         vertex 1.188172e-01 1.800000e+01 4.967688e+00
         vertex 1.188172e-01 0.000000e+00 4.967688e+00
      endloop
   endfacet
   facet normal -9.848078e-01 0.000000e+00 1.736480e-01
      outer loop
         vertex 1.188172e-01 0.000000e+00 4.967688e+00
         vertex 1.188172e-01 1.800000e+01 4.967688e+00
         vertex 2.191262e-02 1.800000e+01 4.418114e+00
      endloop
   endfacet
   facet normal -9.848078e-01 0.000000e+00 1.736480e-01
      outer loop
         vertex 1.188172e-01 0.000000e+00 4.967688e+00
         vertex 2.191262e-02 1.800000e+01 4.418114e+00
         vertex 2.191262e-02 0.000000e+00 4.418114e+00
      endloop
   endfacet
   facet normal -9.993908e-01 0.000000e+00 3.489966e-02
      outer loop
         vertex 2.191262e-02 0.000000e+00 4.418114e+00
         vertex 2.191262e-02 1.800000e+01 4.418114e+00
         vertex 2.436806e-03 1.800000e+01 3.860402e+00
      endloop
   endfacet
   facet normal -9.993908e-01 0.000000e+00 3.489966e-02
      outer loop
         vertex 2.191262e-02 0.000000e+00 4.418114e+00
         vertex 2.436806e-03 1.800000e+01 3.860402e+00
         vertex 2.436806e-03 0.000000e+00 3.860402e+00
      endloop
   endfacet
   facet normal -9.945219e-01 0.000000e+00 -1.045288e-01
      outer loop
         vertex 2.436806e-03 0.000000e+00 3.860402e+00
         vertex 2.436806e-03 1.800000e+01 3.860402e+00
         vertex 6.076926e-02 1.800000e+01 3.305407e+00
      endloop
   endfacet
   facet normal -9.945219e-01 0.000000e+00 -1.045288e-01
      outer loop
         vertex 2.436806e-03 0.000000e+00 3.860402e+00
         vertex 6.076926e-02 1.800000e+01 3.305407e+00
         vertex 6.076926e-02 0.000000e+00 3.305407e+00
      endloop
   endfacet
   facet normal -9.702958e-01 0.000000e+00 -2.419216e-01
      outer loop
         vertex 6.076926e-02 0.000000e+00 3.305407e+00
         vertex 6.076926e-02 1.800000e+01 3.305407e+00
         vertex 1.957740e-01 1.800000e+01 2.763932e+00
      endloop
   endfacet
   facet normal -9.702958e-01 0.000000e+00 -2.419216e-01
      outer loop
         vertex 6.076926e-02 0.000000e+00 3.305407e+00
         vertex 1.957740e-01 1.800000e+01 2.763932e+00
         vertex 1.957740e-01 0.000000e+00 2.763932e+00
      endloop
   endfacet
   facet normal -9.271838e-01 0.000000e+00 -3.746068e-01
      outer loop
         vertex 1.957740e-01 0.000000e+00 2.763932e+00
         vertex 1.957740e-01 1.800000e+01 2.763932e+00
         vertex 4.048240e-01 1.800000e+01 2.246516e+00
      endloop
   endfacet
   facet normal -9.271838e-01 0.000000e+00 -3.746068e-01
      outer loop
         vertex 1.957740e-01 0.000000e+00 2.763932e+00
         vertex 4.048240e-01 1.800000e+01 2.246516e+00
         vertex 4.048240e-01 0.000000e+00 2.246516e+00
      endloop
   endfacet
   facet normal -8.660254e-01 0.000000e+00 -5.000000e-01
      outer loop
         vertex 4.048240e-01 0.000000e+00 2.246516e+00
         vertex 4.048240e-01 1.800000e+01 2.246516e+00
         vertex 6.838499e-01 1.800000e+01 1.763229e+00
      endloop
   endfacet
   facet normal -8.660254e-01 0.000000e+00 -5.000000e-01
      outer loop
         vertex 4.048240e-01 0.000000e+00 2.246516e+00
         vertex 6.838499e-01 1.800000e+01 1.763229e+00
         vertex 6.838499e-01 0.000000e+00 1.763229e+00
      endloop
   endfacet
   facet normal -7.880107e-01 0.000000e+00 -6.156615e-01
      outer loop
         vertex 6.838499e-01 0.000000e+00 1.763229e+00
         vertex 6.838499e-01 1.800000e+01 1.763229e+00
         vertex 1.027421e+00 1.800000e+01 1.323478e+00
      endloop
   endfacet
   facet normal -7.880107e-01 0.000000e+00 -6.156615e-01
      outer loop
         vertex 6.838499e-01 0.000000e+00 1.763229e+00
         vertex 1.027421e+00 1.800000e+01 1.323478e+00
         vertex 1.027421e+00 0.000000e+00 1.323478e+00
      endloop
   endfacet
   facet normal -6.946583e-01 0.000000e+00 -7.193398e-01
      outer loop
         vertex 1.027421e+00 0.000000e+00 1.323478e+00
         vertex 1.027421e+00 1.800000e+01 1.323478e+00
         vertex 1.428850e+00 1.800000e+01 9.358225e-01
      endloop
   endfacet
   facet normal -6.946583e-01 0.000000e+00 -7.193398e-01
      outer loop
         vertex 1.027421e+00 0.000000e+00 1.323478e+00
         vertex 1.428850e+00 1.800000e+01 9.358225e-01
         vertex 1.428850e+00 0.000000e+00 9.358225e-01
      endloop
   endfacet
   facet normal -5.877853e-01 0.000000e+00 -8.090169e-01
      outer loop
         vertex 1.428850e+00 0.000000e+00 9.358225e-01
         vertex 1.428850e+00 1.800000e+01 9.358225e-01
         vertex 1.880323e+00 1.800000e+01 6.078079e-01
      endloop
   endfacet
   facet normal -5.877853e-01 0.000000e+00 -8.090169e-01
      outer loop
         vertex 1.428850e+00 0.000000e+00 9.358225e-01
         vertex 1.880323e+00 1.800000e+01 6.078079e-01
         vertex 1.880323e+00 0.000000e+00 6.078079e-01
      endloop
   endfacet
   facet normal -4.694715e-01 0.000000e+00 -8.829476e-01
      outer loop
         vertex 1.880323e+00 0.000000e+00 6.078079e-01
         vertex 1.880323e+00 1.800000e+01 6.078079e-01
         vertex 2.373054e+00 1.800000e+01 3.458185e-01
      endloop
   endfacet
   facet normal -4.694715e-01 0.000000e+00 -8.829476e-01
      outer loop
         vertex 1.880323e+00 0.000000e+00 6.078079e-01
         vertex 2.373054e+00 1.800000e+01 3.458185e-01
         vertex 2.373054e+00 0.000000e+00 3.458185e-01
      endloop
   endfacet
   facet normal -3.420202e-01 0.000000e+00 -9.396926e-01
      outer loop
         vertex 2.373054e+00 0.000000e+00 3.458185e-01
         vertex 2.373054e+00 1.800000e+01 3.458185e-01
         vertex 2.897451e+00 1.800000e+01 1.549534e-01
      endloop
   endfacet
   facet normal -3.420202e-01 0.000000e+00 -9.396926e-01
      outer loop
         vertex 2.373054e+00 0.000000e+00 3.458185e-01
         vertex 2.897451e+00 1.800000e+01 1.549534e-01
         vertex 2.897451e+00 0.000000e+00 1.549534e-01
      endloop
   endfacet
   facet normal -2.079118e-01 0.000000e+00 -9.781476e-01
      outer loop
         vertex 2.897451e+00 0.000000e+00 1.549534e-01
         vertex 2.897451e+00 1.800000e+01 1.549534e-01
         vertex 3.443308e+00 1.800000e+01 3.892789e-02
      endloop
   endfacet
   facet normal -2.079118e-01 0.000000e+00 -9.781476e-01
      outer loop
         vertex 2.897451e+00 0.000000e+00 1.549534e-01
         vertex 3.443308e+00 1.800000e+01 3.892789e-02
         vertex 3.443308e+00 0.000000e+00 3.892789e-02
      endloop
   endfacet
   facet normal -6.975676e-02 0.000000e+00 -9.975640e-01
      outer loop
         vertex 3.443308e+00 0.000000e+00 3.892789e-02
         vertex 3.443308e+00 1.800000e+01 3.892789e-02
         vertex 4.000000e+00 1.800000e+01 0.000000e+00
      endloop
   endfacet
   facet normal -6.975676e-02 0.000000e+00 -9.975640e-01
      outer loop
         vertex 3.443308e+00 0.000000e+00 3.892789e-02
         vertex 4.000000e+00 1.800000e+01 0.000000e+00
         vertex 4.000000e+00 0.000000e+00 0.000000e+00
      endloop
   endfacet
   facet normal 6.975676e-02 0.000000e+00 -9.975640e-01
      outer loop
         vertex 4.000000e+00 0.000000e+00 0.000000e+00
         vertex 4.000000e+00 1.800000e+01 0.000000e+00
         vertex 4.556693e+00 1.800000e+01 3.892789e-02
      endloop
   endfacet
   facet normal 6.975676e-02 0.000000e+00 -9.975640e-01
      outer loop
         vertex 4.000000e+00 0.000000e+00 0.000000e+00
         vertex 4.556693e+00 1.800000e+01 3.892789e-02
         vertex 4.556693e+00 0.000000e+00 3.892789e-02
      endloop
   endfacet
   facet normal 2.079118e-01 0.000000e+00 -9.781476e-01
      outer loop
         vertex 4.556693e+00 0.000000e+00 3.892789e-02
         vertex 4.556693e+00 1.800000e+01 3.892789e-02
         vertex 5.102550e+00 1.800000e+01 1.549534e-01
      endloop
   endfacet
   facet normal 2.079118e-01 0.000000e+00 -9.781476e-01
      outer loop
         vertex 4.556693e+00 0.000000e+00 3.892789e-02
         vertex 5.102550e+00 1.800000e+01 1.549534e-01
         vertex 5.102550e+00 0.000000e+00 1.549534e-01
      endloop
   endfacet
   facet normal 3.420202e-01 0.000000e+00 -9.396926e-01
      outer loop
         vertex 5.102550e+00 0.000000e+00 1.549534e-01
         vertex 5.102550e+00 1.800000e+01 1.549534e-01
         vertex 5.626947e+00 1.800000e+01 3.458185e-01
      endloop
   endfacet
   facet normal 3.420202e-01 0.000000e+00 -9.396926e-01
      outer loop
         vertex 5.102550e+00 0.000000e+00 1.549534e-01
         vertex 5.626947e+00 1.800000e+01 3.458185e-01
         vertex 5.626947e+00 0.000000e+00 3.458185e-01
      endloop
   endfacet
   facet normal 4.694715e-01 0.000000e+00 -8.829476e-01
      outer loop
         vertex 5.626947e+00 0.000000e+00 3.458185e-01
         vertex 5.626947e+00 1.800000e+01 3.458185e-01
         vertex 6.119677e+00 1.800000e+01 6.078079e-01
      endloop
   endfacet
   facet normal 4.694715e-01 0.000000e+00 -8.829476e-01
      outer loop
         vertex 5.626947e+00 0.000000e+00 3.458185e-01
         vertex 6.119677e+00 1.800000e+01 6.078079e-01
         vertex 6.119677e+00 0.000000e+00 6.078079e-01
      endloop
   endfacet
   facet normal 5.877853e-01 0.000000e+00 -8.090169e-01
      outer loop
         vertex 6.119677e+00 0.000000e+00 6.078079e-01
         vertex 6.119677e+00 1.800000e+01 6.078079e-01
         vertex 6.571151e+00 1.800000e+01 9.358225e-01
      endloop
   endfacet
   facet normal 5.877853e-01 0.000000e+00 -8.090169e-01
      outer loop
         vertex 6.119677e+00 0.000000e+00 6.078079e-01
         vertex 6.571151e+00 1.800000e+01 9.358225e-01
         vertex 6.571151e+00 0.000000e+00 9.358225e-01
      endloop
   endfacet
   facet normal 6.946583e-01 0.000000e+00 -7.193398e-01
      outer loop
         vertex 6.571151e+00 0.000000e+00 9.358225e-01
         vertex 6.571151e+00 1.800000e+01 9.358225e-01
         vertex 6.972580e+00 1.800000e+01 1.323478e+00
      endloop
   endfacet
   facet normal 6.946583e-01 0.000000e+00 -7.193398e-01
      outer loop
         vertex 6.571151e+00 0.000000e+00 9.358225e-01
         vertex 6.972580e+00 1.800000e+01 1.323478e+00
         vertex 6.972580e+00 0.000000e+00 1.323478e+00
      endloop
   endfacet
   facet normal 7.880107e-01 0.000000e+00 -6.156615e-01
      outer loop
         vertex 6.972580e+00 0.000000e+00 1.323478e+00
         vertex 6.972580e+00 1.800000e+01 1.323478e+00
         vertex 7.316150e+00 1.800000e+01 1.763229e+00
      endloop
   endfacet
   facet normal 7.880107e-01 0.000000e+00 -6.156615e-01
      outer loop
         vertex 6.972580e+00 0.000000e+00 1.323478e+00
         vertex 7.316150e+00 1.800000e+01 1.763229e+00
         vertex 7.316150e+00 0.000000e+00 1.763229e+00
      endloop
   endfacet
   facet normal 8.660254e-01 0.000000e+00 -5.000000e-01
      outer loop
         vertex 7.316150e+00 0.000000e+00 1.763229e+00
         vertex 7.316150e+00 1.800000e+01 1.763229e+00
         vertex 7.595176e+00 1.800000e+01 2.246516e+00
      endloop
   endfacet
   facet normal 8.660254e-01 0.000000e+00 -5.000000e-01
      outer loop
         vertex 7.316150e+00 0.000000e+00 1.763229e+00
         vertex 7.595176e+00 1.800000e+01 2.246516e+00
         vertex 7.595176e+00 0.000000e+00 2.246516e+00
      endloop
   endfacet
   facet normal 9.271838e-01 0.000000e+00 -3.746068e-01
      outer loop
         vertex 7.595176e+00 0.000000e+00 2.246516e+00
         vertex 7.595176e+00 1.800000e+01 2.246516e+00
         vertex 7.804226e+00 1.800000e+01 2.763932e+00
      endloop
   endfacet
   facet normal 9.271838e-01 0.000000e+00 -3.746068e-01
      outer loop
         vertex 7.595176e+00 0.000000e+00 2.246516e+00
         vertex 7.804226e+00 1.800000e+01 2.763932e+00
         vertex 7.804226e+00 0.000000e+00 2.763932e+00
      endloop
   endfacet
   facet normal 9.702958e-01 0.000000e+00 -2.419216e-01
      outer loop
         vertex 7.804226e+00 0.000000e+00 2.763932e+00
         vertex 7.804226e+00 1.800000e+01 2.763932e+00
         vertex 7.939231e+00 1.800000e+01 3.305407e+00
      endloop
   endfacet
   facet normal 9.702958e-01 0.000000e+00 -2.419216e-01
      outer loop
         vertex 7.804226e+00 0.000000e+00 2.763932e+00
         vertex 7.939231e+00 1.800000e+01 3.305407e+00
         vertex 7.939231e+00 0.000000e+00 3.305407e+00
      endloop
   endfacet
   facet normal 9.945219e-01 0.000000e+00 -1.045288e-01
      outer loop
         vertex 7.939231e+00 0.000000e+00 3.305407e+00
         vertex 7.939231e+00 1.800000e+01 3.305407e+00
         vertex 7.997564e+00 1.800000e+01 3.860402e+00
      endloop
   endfacet
   facet normal 9.945219e-01 0.000000e+00 -1.045288e-01
      outer loop
         vertex 7.939231e+00 0.000000e+00 3.305407e+00
         vertex 7.997564e+00 1.800000e+01 3.860402e+00
         vertex 7.997564e+00 0.000000e+00 3.860402e+00
      endloop
   endfacet
   facet normal 9.993908e-01 -0.000000e+00 3.489966e-02
      outer loop
         vertex 7.997564e+00 0.000000e+00 3.860402e+00
         vertex 7.997564e+00 1.800000e+01 3.860402e+00
         vertex 7.978088e+00 1.800000e+01 4.418114e+00
      endloop
   endfacet
   facet normal 9.993908e-01 0.000000e+00 3.489966e-02
      outer loop
         vertex 7.997564e+00 0.000000e+00 3.860402e+00
         vertex 7.978088e+00 1.800000e+01 4.418114e+00
         vertex 7.978088e+00 0.000000e+00 4.418114e+00
      endloop
   endfacet
   facet normal 9.848078e-01 -0.000000e+00 1.736480e-01
      outer loop
         vertex 7.978088e+00 0.000000e+00 4.418114e+00
         vertex 7.978088e+00 1.800000e+01 4.418114e+00
         vertex 7.881183e+00 1.800000e+01 4.967688e+00
      endloop
   endfacet
   facet normal 9.848078e-01 0.000000e+00 1.736480e-01
      outer loop
         vertex 7.978088e+00 0.000000e+00 4.418114e+00
         vertex 7.881183e+00 1.800000e+01 4.967688e+00
         vertex 7.881183e+00 0.000000e+00 4.967688e+00
      endloop
   endfacet
   facet normal 9.510564e-01 -0.000000e+00 3.090172e-01
      outer loop
         vertex 7.881183e+00 0.000000e+00 4.967688e+00
         vertex 7.881183e+00 1.800000e+01 4.967688e+00
         vertex 7.708736e+00 1.800000e+01 5.498427e+00
      endloop
   endfacet
   facet normal 9.510564e-01 0.000000e+00 3.090172e-01
      outer loop
         vertex 7.881183e+00 0.000000e+00 4.967688e+00
         vertex 7.708736e+00 1.800000e+01 5.498427e+00
         vertex 7.708736e+00 0.000000e+00 5.498427e+00
      endloop
   endfacet
   facet normal 8.987941e-01 -0.000000e+00 4.383711e-01
      outer loop
         vertex 7.708736e+00 0.000000e+00 5.498427e+00
         vertex 7.708736e+00 1.800000e+01 5.498427e+00
         vertex 7.464102e+00 1.800000e+01 6.000000e+00
      endloop
   endfacet
   facet normal 8.987941e-01 0.000000e+00 4.383711e-01
      outer loop
         vertex 7.708736e+00 0.000000e+00 5.498427e+00
         vertex 7.464102e+00 1.800000e+01 6.000000e+00
         vertex 7.464102e+00 0.000000e+00 6.000000e+00
      endloop
   endfacet
   facet normal 8.290377e-01 -0.000000e+00 5.591928e-01
      outer loop
         vertex 7.464102e+00 0.000000e+00 6.000000e+00
         vertex 7.464102e+00 1.800000e+01 6.000000e+00
         vertex 7.152043e+00 1.800000e+01 6.462646e+00
      endloop
   endfacet
   facet normal 8.290377e-01 0.000000e+00 5.591928e-01
      outer loop
         vertex 7.464102e+00 0.000000e+00 6.000000e+00
         vertex 7.152043e+00 1.800000e+01 6.462646e+00
         vertex 7.152043e+00 0.000000e+00 6.462646e+00
      endloop
   endfacet
   facet normal 7.431448e-01 -0.000000e+00 6.691307e-01
      outer loop
         vertex 7.152043e+00 0.000000e+00 6.462646e+00
         vertex 7.152043e+00 1.800000e+01 6.462646e+00
         vertex 6.778634e+00 1.800000e+01 6.877359e+00
      endloop
   endfacet
   facet normal 7.431448e-01 0.000000e+00 6.691307e-01
      outer loop
         vertex 7.152043e+00 0.000000e+00 6.462646e+00
         vertex 6.778634e+00 1.800000e+01 6.877359e+00
         vertex 6.778634e+00 0.000000e+00 6.877359e+00
      endloop
   endfacet
   facet normal 6.427875e-01 -0.000000e+00 7.660445e-01
      outer loop
         vertex 6.778634e+00 0.000000e+00 6.877359e+00
         vertex 6.778634e+00 1.800000e+01 6.877359e+00
         vertex 6.351141e+00 1.800000e+01 7.236068e+00
      endloop
   endfacet
   facet normal 6.427875e-01 0.000000e+00 7.660445e-01
      outer loop
         vertex 6.778634e+00 0.000000e+00 6.877359e+00
         vertex 6.351141e+00 1.800000e+01 7.236068e+00
         vertex 6.351141e+00 0.000000e+00 7.236068e+00
      endloop
   endfacet
   facet normal 5.299192e-01 -0.000000e+00 8.480481e-01
      outer loop
         vertex 6.351141e+00 0.000000e+00 7.236068e+00
         vertex 6.351141e+00 1.800000e+01 7.236068e+00
         vertex 5.877886e+00 1.800000e+01 7.531791e+00
      endloop
   endfacet
   facet normal 5.299192e-01 0.000000e+00 8.480481e-01
      outer loop
         vertex 6.351141e+00 0.000000e+00 7.236068e+00
         vertex 5.877886e+00 1.800000e+01 7.531791e+00
         vertex 5.877886e+00 0.000000e+00 7.531791e+00
      endloop
   endfacet
   facet normal 4.067366e-01 -0.000000e+00 9.135455e-01
      outer loop
         vertex 5.877886e+00 0.000000e+00 7.531791e+00
         vertex 5.877886e+00 1.800000e+01 7.531791e+00
         vertex 5.368081e+00 1.800000e+01 7.758771e+00
      endloop
   endfacet
   facet normal 4.067366e-01 0.000000e+00 9.135455e-01
      outer loop
         vertex 5.877886e+00 0.000000e+00 7.531791e+00
         vertex 5.368081e+00 1.800000e+01 7.758771e+00
         vertex 5.368081e+00 0.000000e+00 7.758771e+00
      endloop
   endfacet
   facet normal 2.756375e-01 -0.000000e+00 9.612616e-01
      outer loop
         vertex 5.368081e+00 0.000000e+00 7.758771e+00
         vertex 5.368081e+00 1.800000e+01 7.758771e+00
         vertex 4.831647e+00 1.800000e+01 7.912591e+00
      endloop
   endfacet
   facet normal 2.756375e-01 0.000000e+00 9.612616e-01
      outer loop
         vertex 5.368081e+00 0.000000e+00 7.758771e+00
         vertex 4.831647e+00 1.800000e+01 7.912591e+00
         vertex 4.831647e+00 0.000000e+00 7.912591e+00
      endloop
   endfacet
   facet normal 1.391731e-01 -0.000000e+00 9.902681e-01
      outer loop
         vertex 4.831647e+00 0.000000e+00 7.912591e+00
         vertex 4.831647e+00 1.800000e+01 7.912591e+00
         vertex 4.279026e+00 1.800000e+01 7.990256e+00
      endloop
   endfacet
   facet normal 1.391731e-01 0.000000e+00 9.902681e-01
      outer loop
         vertex 4.831647e+00 0.000000e+00 7.912591e+00
         vertex 4.279026e+00 1.800000e+01 7.990256e+00
         vertex 4.279026e+00 0.000000e+00 7.990256e+00
      endloop
   endfacet
   facet normal 3.490008e-02 -0.000000e+00 9.993908e-01
      outer loop
         vertex 4.279026e+00 0.000000e+00 7.990256e+00
         vertex 4.279026e+00 1.800000e+01 7.990256e+00
         vertex 4.000000e+00 0.000000e+00 8.000000e+00
      endloop
   endfacet
   facet normal -8.257943e-02 0.000000e+00 9.965845e-01
      outer loop
         vertex 4.000000e+00 1.800000e+01 1.250000e+00
         vertex 4.000000e+00 0.000000e+00 1.250000e+00
         vertex 4.452635e+00 1.800000e+01 1.287507e+00
      endloop
   endfacet
   facet normal -8.257943e-02 0.000000e+00 9.965845e-01
      outer loop
         vertex 4.452635e+00 1.800000e+01 1.287507e+00
         vertex 4.000000e+00 0.000000e+00 1.250000e+00
         vertex 4.452635e+00 0.000000e+00 1.287507e+00
      endloop
   endfacet
   facet normal -2.454853e-01 0.000000e+00 9.694003e-01
      outer loop
         vertex 4.452635e+00 1.800000e+01 1.287507e+00
         vertex 4.452635e+00 0.000000e+00 1.287507e+00
         vertex 4.892924e+00 1.800000e+01 1.399003e+00
      endloop
   endfacet
   facet normal -2.454853e-01 0.000000e+00 9.694003e-01
      outer loop
         vertex 4.892924e+00 1.800000e+01 1.399003e+00
         vertex 4.452635e+00 0.000000e+00 1.287507e+00
         vertex 4.892924e+00 0.000000e+00 1.399003e+00
      endloop
   endfacet
   facet normal -4.016956e-01 0.000000e+00 9.157733e-01
      outer loop
         vertex 4.892924e+00 1.800000e+01 1.399003e+00
         vertex 4.892924e+00 0.000000e+00 1.399003e+00
         vertex 5.308856e+00 1.800000e+01 1.581447e+00
      endloop
   endfacet
   facet normal -4.016956e-01 0.000000e+00 9.157733e-01
      outer loop
         vertex 5.308856e+00 1.800000e+01 1.581447e+00
         vertex 4.892924e+00 0.000000e+00 1.399003e+00
         vertex 5.308856e+00 0.000000e+00 1.581447e+00
      endloop
   endfacet
   facet normal -5.469481e-01 0.000000e+00 8.371665e-01
      outer loop
         vertex 5.308856e+00 1.800000e+01 1.581447e+00
         vertex 5.308856e+00 0.000000e+00 1.581447e+00
         vertex 5.689085e+00 1.800000e+01 1.829864e+00
      endloop
   endfacet
   facet normal -5.469481e-01 0.000000e+00 8.371665e-01
      outer loop
         vertex 5.689085e+00 1.800000e+01 1.829864e+00
         vertex 5.308856e+00 0.000000e+00 1.581447e+00
         vertex 5.689085e+00 0.000000e+00 1.829864e+00
      endloop
   endfacet
   facet normal -6.772815e-01 0.000000e+00 7.357239e-01
      outer loop
         vertex 5.689085e+00 1.800000e+01 1.829864e+00
         vertex 5.689085e+00 0.000000e+00 1.829864e+00
         vertex 6.023241e+00 1.800000e+01 2.137476e+00
      endloop
   endfacet
   facet normal -6.772815e-01 0.000000e+00 7.357239e-01
      outer loop
         vertex 6.023241e+00 1.800000e+01 2.137476e+00
         vertex 5.689085e+00 0.000000e+00 1.829864e+00
         vertex 6.023241e+00 0.000000e+00 2.137476e+00
      endloop
   endfacet
   facet normal -7.891406e-01 0.000000e+00 6.142125e-01
      outer loop
         vertex 6.023241e+00 1.800000e+01 2.137476e+00
         vertex 6.023241e+00 0.000000e+00 2.137476e+00
         vertex 6.302208e+00 1.800000e+01 2.495893e+00
      endloop
   endfacet
   facet normal -7.891406e-01 0.000000e+00 6.142125e-01
      outer loop
         vertex 6.302208e+00 1.800000e+01 2.495893e+00
         vertex 6.023241e+00 0.000000e+00 2.137476e+00
         vertex 6.302208e+00 0.000000e+00 2.495893e+00
      endloop
   endfacet
   facet normal -8.794737e-01 0.000000e+00 4.759474e-01
      outer loop
         vertex 6.302208e+00 1.800000e+01 2.495893e+00
         vertex 6.302208e+00 0.000000e+00 2.495893e+00
         vertex 6.518377e+00 1.800000e+01 2.895338e+00
      endloop
   endfacet
   facet normal -8.794737e-01 0.000000e+00 4.759474e-01
      outer loop
         vertex 6.518377e+00 1.800000e+01 2.895338e+00
         vertex 6.302208e+00 0.000000e+00 2.495893e+00
         vertex 6.518377e+00 0.000000e+00 2.895338e+00
      endloop
   endfacet
   facet normal -9.458171e-01 0.000000e+00 3.246998e-01
      outer loop
         vertex 6.518377e+00 1.800000e+01 2.895338e+00
         vertex 6.518377e+00 0.000000e+00 2.895338e+00
         vertex 6.665851e+00 1.800000e+01 3.324915e+00
      endloop
   endfacet
   facet normal -9.458171e-01 0.000000e+00 3.246998e-01
      outer loop
         vertex 6.665851e+00 1.800000e+01 3.324915e+00
         vertex 6.518377e+00 0.000000e+00 2.895338e+00
         vertex 6.665851e+00 0.000000e+00 3.324915e+00
      endloop
   endfacet
   facet normal -9.863613e-01 0.000000e+00 1.645945e-01
      outer loop
         vertex 6.665851e+00 1.800000e+01 3.324915e+00
         vertex 6.665851e+00 0.000000e+00 3.324915e+00
         vertex 6.740608e+00 1.800000e+01 3.772907e+00
      endloop
   endfacet
   facet normal -9.863613e-01 0.000000e+00 1.645945e-01
      outer loop
         vertex 6.740608e+00 1.800000e+01 3.772907e+00
         vertex 6.665851e+00 0.000000e+00 3.324915e+00
         vertex 6.740608e+00 0.000000e+00 3.772907e+00
      endloop
   endfacet
   facet normal -1.000000e+00 0.000000e+00 0.000000e+00
      outer loop
         vertex 6.740608e+00 1.800000e+01 3.772907e+00
         vertex 6.740608e+00 0.000000e+00 3.772907e+00
         vertex 6.740608e+00 1.800000e+01 4.227093e+00
      endloop
   endfacet
   facet normal -1.000000e+00 -0.000000e+00 0.000000e+00
      outer loop
         vertex 6.740608e+00 1.800000e+01 4.227093e+00
         vertex 6.740608e+00 0.000000e+00 3.772907e+00
         vertex 6.740608e+00 0.000000e+00 4.227093e+00
      endloop
   endfacet
   facet normal -9.863613e-01 -0.000000e+00 -1.645945e-01
      outer loop
         vertex 6.740608e+00 1.800000e+01 4.227093e+00
         vertex 6.740608e+00 0.000000e+00 4.227093e+00
         vertex 6.665851e+00 1.800000e+01 4.675085e+00
      endloop
   endfacet
   facet normal -9.863613e-01 -0.000000e+00 -1.645945e-01
      outer loop
         vertex 6.665851e+00 1.800000e+01 4.675085e+00
         vertex 6.740608e+00 0.000000e+00 4.227093e+00
         vertex 6.665851e+00 0.000000e+00 4.675085e+00
      endloop
   endfacet
   facet normal -9.458171e-01 -0.000000e+00 -3.246998e-01
      outer loop
         vertex 6.665851e+00 1.800000e+01 4.675085e+00
         vertex 6.665851e+00 0.000000e+00 4.675085e+00
         vertex 6.518377e+00 1.800000e+01 5.104663e+00
      endloop
   endfacet
   facet normal -9.458171e-01 -0.000000e+00 -3.246998e-01
      outer loop
         vertex 6.518377e+00 1.800000e+01 5.104663e+00
         vertex 6.665851e+00 0.000000e+00 4.675085e+00
         vertex 6.518377e+00 0.000000e+00 5.104663e+00
      endloop
   endfacet
   facet normal -8.794737e-01 -0.000000e+00 -4.759474e-01
      outer loop
         vertex 6.518377e+00 1.800000e+01 5.104663e+00
         vertex 6.518377e+00 0.000000e+00 5.104663e+00
         vertex 6.302208e+00 1.800000e+01 5.504108e+00
      endloop
   endfacet
   facet normal -8.794737e-01 -0.000000e+00 -4.759474e-01
      outer loop
         vertex 6.302208e+00 1.800000e+01 5.504108e+00
         vertex 6.518377e+00 0.000000e+00 5.104663e+00
         vertex 6.302208e+00 0.000000e+00 5.504108e+00
      endloop
   endfacet
   facet normal -7.891406e-01 -0.000000e+00 -6.142125e-01
      outer loop
         vertex 6.302208e+00 1.800000e+01 5.504108e+00
         vertex 6.302208e+00 0.000000e+00 5.504108e+00
         vertex 6.023241e+00 1.800000e+01 5.862525e+00
      endloop
   endfacet
   facet normal -7.891406e-01 -0.000000e+00 -6.142125e-01
      outer loop
         vertex 6.023241e+00 1.800000e+01 5.862525e+00
         vertex 6.302208e+00 0.000000e+00 5.504108e+00
         vertex 6.023241e+00 0.000000e+00 5.862525e+00
      endloop
   endfacet
   facet normal -6.772815e-01 -0.000000e+00 -7.357239e-01
      outer loop
         vertex 6.023241e+00 1.800000e+01 5.862525e+00
         vertex 6.023241e+00 0.000000e+00 5.862525e+00
         vertex 5.689085e+00 1.800000e+01 6.170137e+00
      endloop
   endfacet
   facet normal -6.772815e-01 -0.000000e+00 -7.357239e-01
      outer loop
         vertex 5.689085e+00 1.800000e+01 6.170137e+00
         vertex 6.023241e+00 0.000000e+00 5.862525e+00
         vertex 5.689085e+00 0.000000e+00 6.170137e+00
      endloop
   endfacet
   facet normal -5.469481e-01 -0.000000e+00 -8.371665e-01
      outer loop
         vertex 5.689085e+00 1.800000e+01 6.170137e+00
         vertex 5.689085e+00 0.000000e+00 6.170137e+00
         vertex 5.308856e+00 1.800000e+01 6.418553e+00
      endloop
   endfacet
   facet normal -5.469481e-01 -0.000000e+00 -8.371665e-01
      outer loop
         vertex 5.308856e+00 1.800000e+01 6.418553e+00
         vertex 5.689085e+00 0.000000e+00 6.170137e+00
         vertex 5.308856e+00 0.000000e+00 6.418553e+00
      endloop
   endfacet
   facet normal -4.016956e-01 -0.000000e+00 -9.157733e-01
      outer loop
         vertex 5.308856e+00 1.800000e+01 6.418553e+00
         vertex 5.308856e+00 0.000000e+00 6.418553e+00
         vertex 4.892924e+00 1.800000e+01 6.600998e+00
      endloop
   endfacet
   facet normal -4.016956e-01 -0.000000e+00 -9.157733e-01
      outer loop
         vertex 4.892924e+00 1.800000e+01 6.600998e+00
         vertex 5.308856e+00 0.000000e+00 6.418553e+00
         vertex 4.892924e+00 0.000000e+00 6.600998e+00
      endloop
   endfacet
   facet normal -2.454853e-01 -0.000000e+00 -9.694003e-01
      outer loop
         vertex 4.892924e+00 1.800000e+01 6.600998e+00
         vertex 4.892924e+00 0.000000e+00 6.600998e+00
         vertex 4.452635e+00 1.800000e+01 6.712494e+00
      endloop
   endfacet
   facet normal -2.454853e-01 -0.000000e+00 -9.694003e-01
      outer loop
         vertex 4.452635e+00 1.800000e+01 6.712494e+00
         vertex 4.892924e+00 0.000000e+00 6.600998e+00
         vertex 4.452635e+00 0.000000e+00 6.712494e+00
      endloop
   endfacet
   facet normal -8.257943e-02 -0.000000e+00 -9.965845e-01
      outer loop
         vertex 4.452635e+00 1.800000e+01 6.712494e+00
         vertex 4.452635e+00 0.000000e+00 6.712494e+00
         vertex 4.000000e+00 1.800000e+01 6.750000e+00
      endloop
   endfacet
   facet normal -8.257943e-02 -0.000000e+00 -9.965845e-01
      outer loop
         vertex 4.000000e+00 1.800000e+01 6.750000e+00
         vertex 4.452635e+00 0.000000e+00 6.712494e+00
         vertex 4.000000e+00 0.000000e+00 6.750000e+00
      endloop
   endfacet
   facet normal 8.257943e-02 0.000000e+00 -9.965845e-01
      outer loop
         vertex 4.000000e+00 1.800000e+01 6.750000e+00
         vertex 4.000000e+00 0.000000e+00 6.750000e+00
         vertex 3.547365e+00 1.800000e+01 6.712494e+00
      endloop
   endfacet
   facet normal 8.257943e-02 0.000000e+00 -9.965845e-01
      outer loop
         vertex 3.547365e+00 1.800000e+01 6.712494e+00
         vertex 4.000000e+00 0.000000e+00 6.750000e+00
         vertex 3.547365e+00 0.000000e+00 6.712494e+00
      endloop
   endfacet
   facet normal 2.454853e-01 0.000000e+00 -9.694003e-01
      outer loop
         vertex 3.547365e+00 1.800000e+01 6.712494e+00
         vertex 3.547365e+00 0.000000e+00 6.712494e+00
         vertex 3.107077e+00 1.800000e+01 6.600998e+00
      endloop
   endfacet
   facet normal 2.454853e-01 0.000000e+00 -9.694003e-01
      outer loop
         vertex 3.107077e+00 1.800000e+01 6.600998e+00
         vertex 3.547365e+00 0.000000e+00 6.712494e+00
         vertex 3.107077e+00 0.000000e+00 6.600998e+00
      endloop
   endfacet
   facet normal 4.016956e-01 0.000000e+00 -9.157733e-01
      outer loop
         vertex 3.107077e+00 1.800000e+01 6.600998e+00
         vertex 3.107077e+00 0.000000e+00 6.600998e+00
         vertex 2.691145e+00 1.800000e+01 6.418553e+00
      endloop
   endfacet
   facet normal 4.016956e-01 0.000000e+00 -9.157733e-01
      outer loop
         vertex 2.691145e+00 1.800000e+01 6.418553e+00
         vertex 3.107077e+00 0.000000e+00 6.600998e+00
         vertex 2.691145e+00 0.000000e+00 6.418553e+00
      endloop
   endfacet
   facet normal 5.469481e-01 0.000000e+00 -8.371665e-01
      outer loop
         vertex 2.691145e+00 1.800000e+01 6.418553e+00
         vertex 2.691145e+00 0.000000e+00 6.418553e+00
         vertex 2.310915e+00 1.800000e+01 6.170137e+00
      endloop
   endfacet
   facet normal 5.469481e-01 0.000000e+00 -8.371665e-01
      outer loop
         vertex 2.310915e+00 1.800000e+01 6.170137e+00
         vertex 2.691145e+00 0.000000e+00 6.418553e+00
         vertex 2.310915e+00 0.000000e+00 6.170137e+00
      endloop
   endfacet
   facet normal 6.772815e-01 0.000000e+00 -7.357239e-01
      outer loop
         vertex 2.310915e+00 1.800000e+01 6.170137e+00
         vertex 2.310915e+00 0.000000e+00 6.170137e+00
         vertex 1.976759e+00 1.800000e+01 5.862525e+00
      endloop
   endfacet
   facet normal 6.772815e-01 0.000000e+00 -7.357239e-01
      outer loop
         vertex 1.976759e+00 1.800000e+01 5.862525e+00
         vertex 2.310915e+00 0.000000e+00 6.170137e+00
         vertex 1.976759e+00 0.000000e+00 5.862525e+00
      endloop
   endfacet
   facet normal 7.891406e-01 0.000000e+00 -6.142125e-01
      outer loop
         vertex 1.976759e+00 1.800000e+01 5.862525e+00
         vertex 1.976759e+00 0.000000e+00 5.862525e+00
         vertex 1.697792e+00 1.800000e+01 5.504108e+00
      endloop
   endfacet
   facet normal 7.891406e-01 0.000000e+00 -6.142125e-01
      outer loop
         vertex 1.697792e+00 1.800000e+01 5.504108e+00
         vertex 1.976759e+00 0.000000e+00 5.862525e+00
         vertex 1.697792e+00 0.000000e+00 5.504108e+00
      endloop
   endfacet
   facet normal 8.794737e-01 0.000000e+00 -4.759474e-01
      outer loop
         vertex 1.697792e+00 1.800000e+01 5.504108e+00
         vertex 1.697792e+00 0.000000e+00 5.504108e+00
         vertex 1.481624e+00 1.800000e+01 5.104663e+00
      endloop
   endfacet
   facet normal 8.794737e-01 0.000000e+00 -4.759474e-01
      outer loop
         vertex 1.481624e+00 1.800000e+01 5.104663e+00
         vertex 1.697792e+00 0.000000e+00 5.504108e+00
         vertex 1.481624e+00 0.000000e+00 5.104663e+00
      endloop
   endfacet
   facet normal 9.458171e-01 0.000000e+00 -3.246998e-01
      outer loop
         vertex 1.481624e+00 1.800000e+01 5.104663e+00
         vertex 1.481624e+00 0.000000e+00 5.104663e+00
         vertex 1.334149e+00 1.800000e+01 4.675085e+00
      endloop
   endfacet
   facet normal 9.458171e-01 0.000000e+00 -3.246998e-01
      outer loop
         vertex 1.334149e+00 1.800000e+01 4.675085e+00
         vertex 1.481624e+00 0.000000e+00 5.104663e+00
         vertex 1.334149e+00 0.000000e+00 4.675085e+00
      endloop
   endfacet
   facet normal 9.863613e-01 0.000000e+00 -1.645945e-01
      outer loop
         vertex 1.334149e+00 1.800000e+01 4.675085e+00
         vertex 1.334149e+00 0.000000e+00 4.675085e+00
         vertex 1.259393e+00 1.800000e+01 4.227093e+00
      endloop
   endfacet
   facet normal 9.863613e-01 0.000000e+00 -1.645945e-01
      outer loop
         vertex 1.259393e+00 1.800000e+01 4.227093e+00
         vertex 1.334149e+00 0.000000e+00 4.675085e+00
         vertex 1.259393e+00 0.000000e+00 4.227093e+00
      endloop
   endfacet
   facet normal 1.000000e+00 0.000000e+00 0.000000e+00
      outer loop
         vertex 1.259393e+00 1.800000e+01 4.227093e+00
         vertex 1.259393e+00 0.000000e+00 4.227093e+00
         vertex 1.259393e+00 1.800000e+01 3.772907e+00
      endloop
   endfacet
   facet normal 1.000000e+00 0.000000e+00 0.000000e+00
      outer loop
         vertex 1.259393e+00 1.800000e+01 3.772907e+00
         vertex 1.259393e+00 0.000000e+00 4.227093e+00
         vertex 1.259393e+00 0.000000e+00 3.772907e+00
      endloop
   endfacet
   facet normal 9.863613e-01 0.000000e+00 1.645945e-01
      outer loop
         vertex 1.259393e+00 1.800000e+01 3.772907e+00
         vertex 1.259393e+00 0.000000e+00 3.772907e+00
         vertex 1.334149e+00 1.800000e+01 3.324915e+00
      endloop
   endfacet
   facet normal 9.863613e-01 0.000000e+00 1.645945e-01
      outer loop
         vertex 1.334149e+00 1.800000e+01 3.324915e+00
         vertex 1.259393e+00 0.000000e+00 3.772907e+00
         vertex 1.334149e+00 0.000000e+00 3.324915e+00
      endloop
   endfacet
   facet normal 9.458171e-01 0.000000e+00 3.246998e-01
      outer loop
         vertex 1.334149e+00 1.800000e+01 3.324915e+00
         vertex 1.334149e+00 0.000000e+00 3.324915e+00
         vertex 1.481624e+00 1.800000e+01 2.895338e+00
      endloop
   endfacet
   facet normal 9.458171e-01 0.000000e+00 3.246998e-01
      outer loop
         vertex 1.481624e+00 1.800000e+01 2.895338e+00
         vertex 1.334149e+00 0.000000e+00 3.324915e+00
         vertex 1.481624e+00 0.000000e+00 2.895338e+00
      endloop
   endfacet
   facet normal 8.794737e-01 0.000000e+00 4.759474e-01
      outer loop
         vertex 1.481624e+00 1.800000e+01 2.895338e+00
         vertex 1.481624e+00 0.000000e+00 2.895338e+00
         vertex 1.697792e+00 1.800000e+01 2.495893e+00
      endloop
   endfacet
   facet normal 8.794737e-01 0.000000e+00 4.759474e-01
      outer loop
         vertex 1.697792e+00 1.800000e+01 2.495893e+00
         vertex 1.481624e+00 0.000000e+00 2.895338e+00
         vertex 1.697792e+00 0.000000e+00 2.495893e+00
      endloop
   endfacet
   facet normal 7.891406e-01 0.000000e+00 6.142125e-01
      outer loop
         vertex 1.697792e+00 1.800000e+01 2.495893e+00
         vertex 1.697792e+00 0.000000e+00 2.495893e+00
         vertex 1.976759e+00 1.800000e+01 2.137476e+00
      endloop
   endfacet
   facet normal 7.891406e-01 0.000000e+00 6.142125e-01
      outer loop
         vertex 1.976759e+00 1.800000e+01 2.137476e+00
         vertex 1.697792e+00 0.000000e+00 2.495893e+00
         vertex 1.976759e+00 0.000000e+00 2.137476e+00
      endloop
   endfacet
   facet normal 6.772815e-01 0.000000e+00 7.357239e-01
      outer loop
         vertex 1.976759e+00 1.800000e+01 2.137476e+00
         vertex 1.976759e+00 0.000000e+00 2.137476e+00
         vertex 2.310915e+00 1.800000e+01 1.829864e+00
      endloop
   endfacet
   facet normal 6.772815e-01 0.000000e+00 7.357239e-01
      outer loop
         vertex 2.310915e+00 1.800000e+01 1.829864e+00
         vertex 1.976759e+00 0.000000e+00 2.137476e+00
         vertex 2.310915e+00 0.000000e+00 1.829864e+00
      endloop
   endfacet
   facet normal 5.469481e-01 0.000000e+00 8.371665e-01
      outer loop
         vertex 2.310915e+00 1.800000e+01 1.829864e+00
         vertex 2.310915e+00 0.000000e+00 1.829864e+00
         vertex 2.691145e+00 1.800000e+01 1.581447e+00
      endloop
   endfacet
   facet normal 5.469481e-01 0.000000e+00 8.371665e-01
      outer loop
         vertex 2.691145e+00 1.800000e+01 1.581447e+00
         vertex 2.310915e+00 0.000000e+00 1.829864e+00
         vertex 2.691145e+00 0.000000e+00 1.581447e+00
      endloop
   endfacet
   facet normal 4.016956e-01 0.000000e+00 9.157733e-01
      outer loop
         vertex 2.691145e+00 1.800000e+01 1.581447e+00
         vertex 2.691145e+00 0.000000e+00 1.581447e+00
         vertex 3.107077e+00 1.800000e+01 1.399003e+00
      endloop
   endfacet
   facet normal 4.016956e-01 0.000000e+00 9.157733e-01
      outer loop
         vertex 3.107077e+00 1.800000e+01 1.399003e+00
         vertex 2.691145e+00 0.000000e+00 1.581447e+00
         vertex 3.107077e+00 0.000000e+00 1.399003e+00
      endloop
   endfacet
   facet normal 2.454853e-01 0.000000e+00 9.694003e-01
      outer loop
         vertex 3.107077e+00 1.800000e+01 1.399003e+00
         vertex 3.107077e+00 0.000000e+00 1.399003e+00
         vertex 3.547365e+00 1.800000e+01 1.287507e+00
      endloop
   endfacet
   facet normal 2.454853e-01 0.000000e+00 9.694003e-01
      outer loop
         vertex 3.547365e+00 1.800000e+01 1.287507e+00
         vertex 3.107077e+00 0.000000e+00 1.399003e+00
         vertex 3.547365e+00 0.000000e+00 1.287507e+00
      endloop
   endfacet
   facet normal 8.257943e-02 0.000000e+00 9.965845e-01
      outer loop
         vertex 3.547365e+00 1.800000e+01 1.287507e+00
         vertex 3.547365e+00 0.000000e+00 1.287507e+00
         vertex 4.000000e+00 1.800000e+01 1.250000e+00
      endloop
   endfacet
   facet normal 8.257943e-02 0.000000e+00 9.965845e-01
      outer loop
         vertex 4.000000e+00 1.800000e+01 1.250000e+00
         vertex 3.547365e+00 0.000000e+00 1.287507e+00
         vertex 4.000000e+00 0.000000e+00 1.250000e+00
      endloop
   endfacet
endsolid